<mxfile host="app.diagrams.net" modified="2023-04-10T14:09:19.096Z" agent="Mozilla/5.0 (Windows NT 10.0; Win64; x64) AppleWebKit/537.36 (KHTML, like Gecko) Chrome/112.0.0.0 Safari/537.36" etag="hhQR-mG2MNujGKqIguLt" version="21.1.5" type="device">
  <diagram name="PÃ¡gina-1" id="mdyywS_EeyvSb70gsv6_">
    <mxGraphModel dx="2876" dy="1137" grid="1" gridSize="10" guides="1" tooltips="1" connect="1" arrows="1" fold="1" page="1" pageScale="1" pageWidth="827" pageHeight="1169" math="0" shadow="0">
      <root>
        <mxCell id="0" />
        <mxCell id="1" parent="0" />
        <mxCell id="hRhsfTNCvOJJ-qf6JOop-1" value="&lt;font style=&quot;font-size: 48px;&quot;&gt;MerXDer: Projeto final (Horizonte Azul)&lt;/font&gt;" style="text;html=1;align=center;verticalAlign=middle;resizable=0;points=[];autosize=1;strokeColor=none;fillColor=none;" parent="1" vertex="1">
          <mxGeometry x="425" y="25" width="850" height="70" as="geometry" />
        </mxCell>
        <mxCell id="hRhsfTNCvOJJ-qf6JOop-6" value="&lt;font style=&quot;font-size: 36px;&quot;&gt;Passagens&lt;/font&gt;" style="rounded=0;whiteSpace=wrap;html=1;" parent="1" vertex="1">
          <mxGeometry x="1240" y="940" width="220" height="60" as="geometry" />
        </mxCell>
        <mxCell id="hRhsfTNCvOJJ-qf6JOop-31" value="&lt;span style=&quot;font-size: 30px;&quot;&gt;poltrona&lt;/span&gt;" style="ellipse;whiteSpace=wrap;html=1;" parent="1" vertex="1">
          <mxGeometry x="1090" y="1020" width="170" height="80" as="geometry" />
        </mxCell>
        <mxCell id="hRhsfTNCvOJJ-qf6JOop-32" value="&lt;font style=&quot;font-size: 36px;&quot;&gt;&lt;u&gt;Id&lt;/u&gt;&lt;/font&gt;" style="ellipse;whiteSpace=wrap;html=1;" parent="1" vertex="1">
          <mxGeometry x="1265" y="1230" width="170" height="80" as="geometry" />
        </mxCell>
        <mxCell id="hRhsfTNCvOJJ-qf6JOop-33" value="&lt;font style=&quot;font-size: 25px;&quot;&gt;valor&lt;/font&gt;" style="ellipse;whiteSpace=wrap;html=1;" parent="1" vertex="1">
          <mxGeometry x="1380" y="1130" width="200" height="80" as="geometry" />
        </mxCell>
        <mxCell id="hRhsfTNCvOJJ-qf6JOop-34" value="&lt;font style=&quot;font-size: 30px;&quot;&gt;descricao&lt;/font&gt;" style="ellipse;whiteSpace=wrap;html=1;" parent="1" vertex="1">
          <mxGeometry x="1420" y="1020" width="170" height="80" as="geometry" />
        </mxCell>
        <mxCell id="hRhsfTNCvOJJ-qf6JOop-35" value="&lt;font style=&quot;font-size: 30px;&quot;&gt;tipo&lt;/font&gt;" style="ellipse;whiteSpace=wrap;html=1;" parent="1" vertex="1">
          <mxGeometry x="1130" y="1130" width="190" height="80" as="geometry" />
        </mxCell>
        <mxCell id="hRhsfTNCvOJJ-qf6JOop-36" value="" style="endArrow=none;html=1;rounded=0;exitX=0.5;exitY=1;exitDx=0;exitDy=0;entryX=0;entryY=0;entryDx=0;entryDy=0;" parent="1" source="hRhsfTNCvOJJ-qf6JOop-6" target="hRhsfTNCvOJJ-qf6JOop-33" edge="1">
          <mxGeometry width="50" height="50" relative="1" as="geometry">
            <mxPoint x="1421" y="330" as="sourcePoint" />
            <mxPoint x="1280" y="410" as="targetPoint" />
          </mxGeometry>
        </mxCell>
        <mxCell id="hRhsfTNCvOJJ-qf6JOop-37" value="" style="endArrow=none;html=1;rounded=0;exitX=0.5;exitY=1;exitDx=0;exitDy=0;entryX=1;entryY=0;entryDx=0;entryDy=0;" parent="1" source="hRhsfTNCvOJJ-qf6JOop-6" target="hRhsfTNCvOJJ-qf6JOop-31" edge="1">
          <mxGeometry width="50" height="50" relative="1" as="geometry">
            <mxPoint x="1431" y="340" as="sourcePoint" />
            <mxPoint x="1170" y="410" as="targetPoint" />
          </mxGeometry>
        </mxCell>
        <mxCell id="hRhsfTNCvOJJ-qf6JOop-38" value="" style="endArrow=none;html=1;rounded=0;exitX=0.5;exitY=1;exitDx=0;exitDy=0;entryX=1;entryY=0;entryDx=0;entryDy=0;" parent="1" source="hRhsfTNCvOJJ-qf6JOop-6" target="hRhsfTNCvOJJ-qf6JOop-35" edge="1">
          <mxGeometry width="50" height="50" relative="1" as="geometry">
            <mxPoint x="1441" y="350" as="sourcePoint" />
            <mxPoint x="1220" y="440" as="targetPoint" />
          </mxGeometry>
        </mxCell>
        <mxCell id="hRhsfTNCvOJJ-qf6JOop-39" value="" style="endArrow=none;html=1;rounded=0;exitX=0.5;exitY=1;exitDx=0;exitDy=0;entryX=0;entryY=0;entryDx=0;entryDy=0;" parent="1" source="hRhsfTNCvOJJ-qf6JOop-6" target="hRhsfTNCvOJJ-qf6JOop-34" edge="1">
          <mxGeometry width="50" height="50" relative="1" as="geometry">
            <mxPoint x="1380" y="330" as="sourcePoint" />
            <mxPoint x="1330" y="380" as="targetPoint" />
          </mxGeometry>
        </mxCell>
        <mxCell id="hRhsfTNCvOJJ-qf6JOop-40" value="" style="endArrow=none;html=1;rounded=0;exitX=0.5;exitY=1;exitDx=0;exitDy=0;entryX=0.5;entryY=0;entryDx=0;entryDy=0;" parent="1" source="hRhsfTNCvOJJ-qf6JOop-6" target="hRhsfTNCvOJJ-qf6JOop-32" edge="1">
          <mxGeometry width="50" height="50" relative="1" as="geometry">
            <mxPoint x="1461" y="370" as="sourcePoint" />
            <mxPoint x="1240" y="460" as="targetPoint" />
            <Array as="points" />
          </mxGeometry>
        </mxCell>
        <mxCell id="hRhsfTNCvOJJ-qf6JOop-44" value="" style="endArrow=none;html=1;rounded=0;entryX=1;entryY=0.5;entryDx=0;entryDy=0;exitX=0;exitY=0.5;exitDx=0;exitDy=0;" parent="1" source="hRhsfTNCvOJJ-qf6JOop-59" target="hRhsfTNCvOJJ-qf6JOop-47" edge="1">
          <mxGeometry width="50" height="50" relative="1" as="geometry">
            <mxPoint x="670" y="739.29" as="sourcePoint" />
            <mxPoint x="570" y="740" as="targetPoint" />
            <Array as="points" />
          </mxGeometry>
        </mxCell>
        <mxCell id="hRhsfTNCvOJJ-qf6JOop-45" value="&lt;font style=&quot;font-size: 24px;&quot;&gt;Possui&lt;/font&gt;" style="rhombus;whiteSpace=wrap;html=1;" parent="1" vertex="1">
          <mxGeometry x="770" y="920" width="120" height="100" as="geometry" />
        </mxCell>
        <mxCell id="hRhsfTNCvOJJ-qf6JOop-47" value="&lt;font style=&quot;font-size: 36px;&quot;&gt;Voo&lt;/font&gt;" style="rounded=0;whiteSpace=wrap;html=1;" parent="1" vertex="1">
          <mxGeometry x="320" y="940" width="220" height="60" as="geometry" />
        </mxCell>
        <mxCell id="hRhsfTNCvOJJ-qf6JOop-48" value="" style="endArrow=none;html=1;rounded=0;exitX=0.5;exitY=1;exitDx=0;exitDy=0;entryX=0;entryY=0;entryDx=0;entryDy=0;" parent="1" source="hRhsfTNCvOJJ-qf6JOop-47" target="NRTdCzGTAj_v-6VQH-Ef-12" edge="1">
          <mxGeometry width="50" height="50" relative="1" as="geometry">
            <mxPoint x="1250" y="260" as="sourcePoint" />
            <mxPoint x="495.150060061314" y="941.5966386731661" as="targetPoint" />
            <Array as="points" />
          </mxGeometry>
        </mxCell>
        <mxCell id="hRhsfTNCvOJJ-qf6JOop-49" value="" style="endArrow=none;html=1;rounded=0;entryX=0.5;entryY=1;entryDx=0;entryDy=0;exitX=1;exitY=0;exitDx=0;exitDy=0;" parent="1" source="hRhsfTNCvOJJ-qf6JOop-57" target="hRhsfTNCvOJJ-qf6JOop-47" edge="1">
          <mxGeometry width="50" height="50" relative="1" as="geometry">
            <mxPoint x="1100" y="890" as="sourcePoint" />
            <mxPoint x="1260" y="470" as="targetPoint" />
            <Array as="points" />
          </mxGeometry>
        </mxCell>
        <mxCell id="hRhsfTNCvOJJ-qf6JOop-50" value="" style="endArrow=none;html=1;rounded=0;entryX=0.5;entryY=1;entryDx=0;entryDy=0;exitX=1;exitY=0;exitDx=0;exitDy=0;" parent="1" source="hRhsfTNCvOJJ-qf6JOop-56" target="hRhsfTNCvOJJ-qf6JOop-47" edge="1">
          <mxGeometry width="50" height="50" relative="1" as="geometry">
            <mxPoint x="1060" y="830" as="sourcePoint" />
            <mxPoint x="1170" y="820" as="targetPoint" />
            <Array as="points" />
          </mxGeometry>
        </mxCell>
        <mxCell id="hRhsfTNCvOJJ-qf6JOop-51" value="" style="endArrow=none;html=1;rounded=0;entryX=0.5;entryY=1;entryDx=0;entryDy=0;exitX=0;exitY=0;exitDx=0;exitDy=0;" parent="1" source="hRhsfTNCvOJJ-qf6JOop-55" target="hRhsfTNCvOJJ-qf6JOop-47" edge="1">
          <mxGeometry width="50" height="50" relative="1" as="geometry">
            <mxPoint x="1340" y="830" as="sourcePoint" />
            <mxPoint x="1280" y="490" as="targetPoint" />
            <Array as="points" />
          </mxGeometry>
        </mxCell>
        <mxCell id="hRhsfTNCvOJJ-qf6JOop-52" value="" style="endArrow=none;html=1;rounded=0;entryX=0.5;entryY=1;entryDx=0;entryDy=0;exitX=0.5;exitY=0;exitDx=0;exitDy=0;" parent="1" source="hRhsfTNCvOJJ-qf6JOop-53" target="hRhsfTNCvOJJ-qf6JOop-47" edge="1">
          <mxGeometry width="50" height="50" relative="1" as="geometry">
            <mxPoint x="1200" y="910" as="sourcePoint" />
            <mxPoint x="1290" y="500" as="targetPoint" />
            <Array as="points" />
          </mxGeometry>
        </mxCell>
        <mxCell id="hRhsfTNCvOJJ-qf6JOop-53" value="&lt;font style=&quot;font-size: 36px;&quot;&gt;&lt;u&gt;Id&lt;/u&gt;&lt;/font&gt;" style="ellipse;whiteSpace=wrap;html=1;" parent="1" vertex="1">
          <mxGeometry x="345" y="1230" width="170" height="80" as="geometry" />
        </mxCell>
        <mxCell id="hRhsfTNCvOJJ-qf6JOop-55" value="&lt;font style=&quot;font-size: 30px;&quot;&gt;descricao&lt;/font&gt;" style="ellipse;whiteSpace=wrap;html=1;" parent="1" vertex="1">
          <mxGeometry x="500" y="1010" width="170" height="80" as="geometry" />
        </mxCell>
        <mxCell id="hRhsfTNCvOJJ-qf6JOop-56" value="&lt;font style=&quot;font-size: 36px;&quot;&gt;hora&lt;/font&gt;" style="ellipse;whiteSpace=wrap;html=1;" parent="1" vertex="1">
          <mxGeometry x="180" y="1020" width="170" height="80" as="geometry" />
        </mxCell>
        <mxCell id="hRhsfTNCvOJJ-qf6JOop-57" value="&lt;font style=&quot;font-size: 30px;&quot;&gt;data_saida&lt;/font&gt;" style="ellipse;whiteSpace=wrap;html=1;" parent="1" vertex="1">
          <mxGeometry x="210" y="1120" width="170" height="80" as="geometry" />
        </mxCell>
        <mxCell id="hRhsfTNCvOJJ-qf6JOop-60" value="" style="endArrow=none;html=1;rounded=0;entryX=1;entryY=0.5;entryDx=0;entryDy=0;exitX=0;exitY=0.5;exitDx=0;exitDy=0;" parent="1" source="hRhsfTNCvOJJ-qf6JOop-45" target="hRhsfTNCvOJJ-qf6JOop-59" edge="1">
          <mxGeometry width="50" height="50" relative="1" as="geometry">
            <mxPoint x="770" y="740" as="sourcePoint" />
            <mxPoint x="570" y="740" as="targetPoint" />
            <Array as="points" />
          </mxGeometry>
        </mxCell>
        <mxCell id="hRhsfTNCvOJJ-qf6JOop-59" value="&lt;font style=&quot;font-size: 30px;&quot;&gt;(1,1)&lt;/font&gt;" style="text;html=1;align=center;verticalAlign=middle;resizable=0;points=[];autosize=1;strokeColor=none;fillColor=none;" parent="1" vertex="1">
          <mxGeometry x="635" y="945" width="90" height="50" as="geometry" />
        </mxCell>
        <mxCell id="hRhsfTNCvOJJ-qf6JOop-61" value="&lt;font style=&quot;font-size: 30px;&quot;&gt;(N,1)&lt;/font&gt;" style="text;html=1;align=center;verticalAlign=middle;resizable=0;points=[];autosize=1;strokeColor=none;fillColor=none;" parent="1" vertex="1">
          <mxGeometry x="1050" y="945" width="90" height="50" as="geometry" />
        </mxCell>
        <mxCell id="hRhsfTNCvOJJ-qf6JOop-81" value="" style="endArrow=none;html=1;rounded=0;entryX=1;entryY=0.5;entryDx=0;entryDy=0;exitX=-0.037;exitY=0.503;exitDx=0;exitDy=0;exitPerimeter=0;" parent="1" source="hRhsfTNCvOJJ-qf6JOop-61" target="hRhsfTNCvOJJ-qf6JOop-45" edge="1">
          <mxGeometry width="50" height="50" relative="1" as="geometry">
            <mxPoint x="1020" y="730" as="sourcePoint" />
            <mxPoint x="900" y="730" as="targetPoint" />
            <Array as="points" />
          </mxGeometry>
        </mxCell>
        <mxCell id="hRhsfTNCvOJJ-qf6JOop-82" value="" style="endArrow=none;html=1;rounded=0;exitX=0;exitY=0.5;exitDx=0;exitDy=0;entryX=0.991;entryY=0.503;entryDx=0;entryDy=0;entryPerimeter=0;" parent="1" source="hRhsfTNCvOJJ-qf6JOop-6" target="hRhsfTNCvOJJ-qf6JOop-61" edge="1">
          <mxGeometry width="50" height="50" relative="1" as="geometry">
            <mxPoint x="780" y="750" as="sourcePoint" />
            <mxPoint x="1160" y="740" as="targetPoint" />
            <Array as="points" />
          </mxGeometry>
        </mxCell>
        <mxCell id="NRTdCzGTAj_v-6VQH-Ef-1" value="&lt;font style=&quot;font-size: 24px;&quot;&gt;Possui&lt;/font&gt;" style="rhombus;whiteSpace=wrap;html=1;" vertex="1" parent="1">
          <mxGeometry x="760" y="260" width="120" height="100" as="geometry" />
        </mxCell>
        <mxCell id="NRTdCzGTAj_v-6VQH-Ef-2" value="&lt;font style=&quot;font-size: 36px;&quot;&gt;Voo&lt;/font&gt;" style="rounded=0;whiteSpace=wrap;html=1;" vertex="1" parent="1">
          <mxGeometry x="330" y="280" width="220" height="60" as="geometry" />
        </mxCell>
        <mxCell id="NRTdCzGTAj_v-6VQH-Ef-3" value="&lt;font style=&quot;font-size: 30px;&quot;&gt;(1,1)&lt;/font&gt;" style="text;html=1;align=center;verticalAlign=middle;resizable=0;points=[];autosize=1;strokeColor=none;fillColor=none;" vertex="1" parent="1">
          <mxGeometry x="595" y="285" width="90" height="50" as="geometry" />
        </mxCell>
        <mxCell id="NRTdCzGTAj_v-6VQH-Ef-4" value="" style="endArrow=none;html=1;rounded=0;entryX=1;entryY=0.5;entryDx=0;entryDy=0;exitX=0;exitY=0.5;exitDx=0;exitDy=0;entryPerimeter=0;" edge="1" parent="1" source="NRTdCzGTAj_v-6VQH-Ef-1" target="NRTdCzGTAj_v-6VQH-Ef-3">
          <mxGeometry width="50" height="50" relative="1" as="geometry">
            <mxPoint x="760" y="580" as="sourcePoint" />
            <mxPoint x="670" y="580" as="targetPoint" />
            <Array as="points" />
          </mxGeometry>
        </mxCell>
        <mxCell id="NRTdCzGTAj_v-6VQH-Ef-5" value="" style="endArrow=none;html=1;rounded=0;entryX=1;entryY=0.5;entryDx=0;entryDy=0;exitX=0;exitY=0.5;exitDx=0;exitDy=0;exitPerimeter=0;" edge="1" parent="1" source="NRTdCzGTAj_v-6VQH-Ef-3" target="NRTdCzGTAj_v-6VQH-Ef-2">
          <mxGeometry width="50" height="50" relative="1" as="geometry">
            <mxPoint x="770" y="590" as="sourcePoint" />
            <mxPoint x="680" y="590" as="targetPoint" />
            <Array as="points" />
          </mxGeometry>
        </mxCell>
        <mxCell id="NRTdCzGTAj_v-6VQH-Ef-6" value="" style="endArrow=none;html=1;rounded=0;entryX=1;entryY=0.5;entryDx=0;entryDy=0;exitX=0.003;exitY=0.503;exitDx=0;exitDy=0;exitPerimeter=0;" edge="1" parent="1" source="NRTdCzGTAj_v-6VQH-Ef-7" target="NRTdCzGTAj_v-6VQH-Ef-1">
          <mxGeometry width="50" height="50" relative="1" as="geometry">
            <mxPoint x="1080" y="310" as="sourcePoint" />
            <mxPoint x="880" y="580" as="targetPoint" />
            <Array as="points" />
          </mxGeometry>
        </mxCell>
        <mxCell id="NRTdCzGTAj_v-6VQH-Ef-7" value="&lt;font style=&quot;font-size: 30px;&quot;&gt;(1,N)&lt;/font&gt;" style="text;html=1;align=center;verticalAlign=middle;resizable=0;points=[];autosize=1;strokeColor=none;fillColor=none;" vertex="1" parent="1">
          <mxGeometry x="995" y="285" width="90" height="50" as="geometry" />
        </mxCell>
        <mxCell id="NRTdCzGTAj_v-6VQH-Ef-8" value="" style="endArrow=none;html=1;rounded=0;entryX=1;entryY=0.486;entryDx=0;entryDy=0;entryPerimeter=0;exitX=0;exitY=0.5;exitDx=0;exitDy=0;" edge="1" parent="1" source="NRTdCzGTAj_v-6VQH-Ef-10" target="NRTdCzGTAj_v-6VQH-Ef-7">
          <mxGeometry width="50" height="50" relative="1" as="geometry">
            <mxPoint x="1350" y="309" as="sourcePoint" />
            <mxPoint x="1170" y="314.29" as="targetPoint" />
            <Array as="points" />
          </mxGeometry>
        </mxCell>
        <mxCell id="NRTdCzGTAj_v-6VQH-Ef-10" value="&lt;span style=&quot;font-size: 36px;&quot;&gt;Tripulacao&lt;/span&gt;" style="rounded=0;whiteSpace=wrap;html=1;" vertex="1" parent="1">
          <mxGeometry x="1235" y="280" width="220" height="60" as="geometry" />
        </mxCell>
        <mxCell id="NRTdCzGTAj_v-6VQH-Ef-11" value="&lt;font style=&quot;font-size: 30px;&quot;&gt;descricao&lt;/font&gt;" style="ellipse;whiteSpace=wrap;html=1;" vertex="1" parent="1">
          <mxGeometry x="500" y="370" width="170" height="80" as="geometry" />
        </mxCell>
        <mxCell id="NRTdCzGTAj_v-6VQH-Ef-12" value="&lt;font style=&quot;font-size: 36px;&quot;&gt;destino&lt;/font&gt;" style="ellipse;whiteSpace=wrap;html=1;" vertex="1" parent="1">
          <mxGeometry x="460" y="1120" width="170" height="80" as="geometry" />
        </mxCell>
        <mxCell id="NRTdCzGTAj_v-6VQH-Ef-13" value="&lt;font style=&quot;font-size: 36px;&quot;&gt;destino&lt;/font&gt;" style="ellipse;whiteSpace=wrap;html=1;" vertex="1" parent="1">
          <mxGeometry x="490" y="490" width="170" height="80" as="geometry" />
        </mxCell>
        <mxCell id="NRTdCzGTAj_v-6VQH-Ef-14" value="&lt;font style=&quot;font-size: 30px;&quot;&gt;data_saida&lt;/font&gt;" style="ellipse;whiteSpace=wrap;html=1;" vertex="1" parent="1">
          <mxGeometry x="180" y="480" width="170" height="80" as="geometry" />
        </mxCell>
        <mxCell id="NRTdCzGTAj_v-6VQH-Ef-15" value="&lt;font style=&quot;font-size: 36px;&quot;&gt;hora&lt;/font&gt;" style="ellipse;whiteSpace=wrap;html=1;" vertex="1" parent="1">
          <mxGeometry x="185" y="370" width="170" height="80" as="geometry" />
        </mxCell>
        <mxCell id="NRTdCzGTAj_v-6VQH-Ef-16" value="&lt;font style=&quot;font-size: 36px;&quot;&gt;&lt;u&gt;Id&lt;/u&gt;&lt;/font&gt;" style="ellipse;whiteSpace=wrap;html=1;" vertex="1" parent="1">
          <mxGeometry x="355" y="620" width="170" height="80" as="geometry" />
        </mxCell>
        <mxCell id="NRTdCzGTAj_v-6VQH-Ef-17" value="" style="endArrow=none;html=1;rounded=0;entryX=0.5;entryY=1;entryDx=0;entryDy=0;exitX=0.5;exitY=0;exitDx=0;exitDy=0;" edge="1" parent="1" source="NRTdCzGTAj_v-6VQH-Ef-16" target="NRTdCzGTAj_v-6VQH-Ef-2">
          <mxGeometry width="50" height="50" relative="1" as="geometry">
            <mxPoint x="440" y="1050" as="sourcePoint" />
            <mxPoint x="440" y="820" as="targetPoint" />
            <Array as="points" />
          </mxGeometry>
        </mxCell>
        <mxCell id="NRTdCzGTAj_v-6VQH-Ef-18" value="" style="endArrow=none;html=1;rounded=0;entryX=0.5;entryY=1;entryDx=0;entryDy=0;exitX=1;exitY=0;exitDx=0;exitDy=0;" edge="1" parent="1" source="NRTdCzGTAj_v-6VQH-Ef-14" target="NRTdCzGTAj_v-6VQH-Ef-2">
          <mxGeometry width="50" height="50" relative="1" as="geometry">
            <mxPoint x="450" y="630" as="sourcePoint" />
            <mxPoint x="450" y="350" as="targetPoint" />
            <Array as="points" />
          </mxGeometry>
        </mxCell>
        <mxCell id="NRTdCzGTAj_v-6VQH-Ef-19" value="" style="endArrow=none;html=1;rounded=0;entryX=0.5;entryY=1;entryDx=0;entryDy=0;exitX=1;exitY=0;exitDx=0;exitDy=0;" edge="1" parent="1" source="NRTdCzGTAj_v-6VQH-Ef-15" target="NRTdCzGTAj_v-6VQH-Ef-2">
          <mxGeometry width="50" height="50" relative="1" as="geometry">
            <mxPoint x="460" y="640" as="sourcePoint" />
            <mxPoint x="460" y="360" as="targetPoint" />
            <Array as="points" />
          </mxGeometry>
        </mxCell>
        <mxCell id="NRTdCzGTAj_v-6VQH-Ef-20" value="" style="endArrow=none;html=1;rounded=0;entryX=0.5;entryY=1;entryDx=0;entryDy=0;exitX=0;exitY=0;exitDx=0;exitDy=0;" edge="1" parent="1" source="NRTdCzGTAj_v-6VQH-Ef-11" target="NRTdCzGTAj_v-6VQH-Ef-2">
          <mxGeometry width="50" height="50" relative="1" as="geometry">
            <mxPoint x="470" y="650" as="sourcePoint" />
            <mxPoint x="470" y="370" as="targetPoint" />
            <Array as="points" />
          </mxGeometry>
        </mxCell>
        <mxCell id="NRTdCzGTAj_v-6VQH-Ef-21" value="" style="endArrow=none;html=1;rounded=0;entryX=0.5;entryY=1;entryDx=0;entryDy=0;exitX=0;exitY=0;exitDx=0;exitDy=0;" edge="1" parent="1" source="NRTdCzGTAj_v-6VQH-Ef-13" target="NRTdCzGTAj_v-6VQH-Ef-2">
          <mxGeometry width="50" height="50" relative="1" as="geometry">
            <mxPoint x="480" y="660" as="sourcePoint" />
            <mxPoint x="480" y="380" as="targetPoint" />
            <Array as="points" />
          </mxGeometry>
        </mxCell>
        <mxCell id="NRTdCzGTAj_v-6VQH-Ef-22" value="&lt;font style=&quot;font-size: 25px;&quot;&gt;tecnico_manu&lt;/font&gt;" style="ellipse;whiteSpace=wrap;html=1;" vertex="1" parent="1">
          <mxGeometry x="1455" y="570" width="190" height="90" as="geometry" />
        </mxCell>
        <mxCell id="NRTdCzGTAj_v-6VQH-Ef-23" value="&lt;font style=&quot;font-size: 36px;&quot;&gt;&lt;u&gt;id&lt;/u&gt;&lt;/font&gt;" style="ellipse;whiteSpace=wrap;html=1;" vertex="1" parent="1">
          <mxGeometry x="1110" y="560" width="170" height="80" as="geometry" />
        </mxCell>
        <mxCell id="NRTdCzGTAj_v-6VQH-Ef-24" value="&lt;font style=&quot;font-size: 36px;&quot;&gt;navigator&lt;/font&gt;" style="ellipse;whiteSpace=wrap;html=1;" vertex="1" parent="1">
          <mxGeometry x="1480" y="470" width="190" height="90" as="geometry" />
        </mxCell>
        <mxCell id="NRTdCzGTAj_v-6VQH-Ef-25" value="&lt;font style=&quot;font-size: 30px;&quot;&gt;comissarios&lt;/font&gt;" style="ellipse;whiteSpace=wrap;html=1;" vertex="1" parent="1">
          <mxGeometry x="1090" y="440" width="180" height="100" as="geometry" />
        </mxCell>
        <mxCell id="NRTdCzGTAj_v-6VQH-Ef-26" value="&lt;font style=&quot;font-size: 36px;&quot;&gt;copiloto&lt;/font&gt;" style="ellipse;whiteSpace=wrap;html=1;" vertex="1" parent="1">
          <mxGeometry x="1080" y="360" width="170" height="80" as="geometry" />
        </mxCell>
        <mxCell id="NRTdCzGTAj_v-6VQH-Ef-27" value="&lt;font style=&quot;font-size: 36px;&quot;&gt;descricao&lt;/font&gt;" style="ellipse;whiteSpace=wrap;html=1;" vertex="1" parent="1">
          <mxGeometry x="1455" y="355" width="190" height="90" as="geometry" />
        </mxCell>
        <mxCell id="NRTdCzGTAj_v-6VQH-Ef-28" value="&lt;font style=&quot;font-size: 25px;&quot;&gt;engenheiro_voo&lt;/font&gt;" style="ellipse;whiteSpace=wrap;html=1;" vertex="1" parent="1">
          <mxGeometry x="1235" y="630" width="217.5" height="105" as="geometry" />
        </mxCell>
        <mxCell id="NRTdCzGTAj_v-6VQH-Ef-29" value="" style="endArrow=none;html=1;rounded=0;entryX=0.5;entryY=1;entryDx=0;entryDy=0;exitX=0;exitY=0;exitDx=0;exitDy=0;" edge="1" parent="1" source="NRTdCzGTAj_v-6VQH-Ef-27" target="NRTdCzGTAj_v-6VQH-Ef-10">
          <mxGeometry width="50" height="50" relative="1" as="geometry">
            <mxPoint x="1132.5" y="570" as="sourcePoint" />
            <mxPoint x="1057.5" y="408" as="targetPoint" />
            <Array as="points" />
          </mxGeometry>
        </mxCell>
        <mxCell id="NRTdCzGTAj_v-6VQH-Ef-30" value="" style="endArrow=none;html=1;rounded=0;entryX=0.5;entryY=1;entryDx=0;entryDy=0;exitX=1;exitY=0;exitDx=0;exitDy=0;" edge="1" parent="1" source="NRTdCzGTAj_v-6VQH-Ef-25" target="NRTdCzGTAj_v-6VQH-Ef-10">
          <mxGeometry width="50" height="50" relative="1" as="geometry">
            <mxPoint x="1142.5" y="580" as="sourcePoint" />
            <mxPoint x="1067.5" y="418" as="targetPoint" />
            <Array as="points" />
          </mxGeometry>
        </mxCell>
        <mxCell id="NRTdCzGTAj_v-6VQH-Ef-31" value="" style="endArrow=none;html=1;rounded=0;exitX=0;exitY=0;exitDx=0;exitDy=0;entryX=0.5;entryY=1;entryDx=0;entryDy=0;" edge="1" parent="1" source="NRTdCzGTAj_v-6VQH-Ef-24" target="NRTdCzGTAj_v-6VQH-Ef-10">
          <mxGeometry width="50" height="50" relative="1" as="geometry">
            <mxPoint x="1152.5" y="590" as="sourcePoint" />
            <mxPoint x="1180" y="500" as="targetPoint" />
            <Array as="points" />
          </mxGeometry>
        </mxCell>
        <mxCell id="NRTdCzGTAj_v-6VQH-Ef-32" value="" style="endArrow=none;html=1;rounded=0;entryX=1;entryY=0;entryDx=0;entryDy=0;exitX=0.5;exitY=1;exitDx=0;exitDy=0;" edge="1" parent="1" source="NRTdCzGTAj_v-6VQH-Ef-10" target="NRTdCzGTAj_v-6VQH-Ef-23">
          <mxGeometry width="50" height="50" relative="1" as="geometry">
            <mxPoint x="1162.5" y="600" as="sourcePoint" />
            <mxPoint x="1087.5" y="438" as="targetPoint" />
            <Array as="points" />
          </mxGeometry>
        </mxCell>
        <mxCell id="NRTdCzGTAj_v-6VQH-Ef-33" value="" style="endArrow=none;html=1;rounded=0;entryX=0;entryY=0;entryDx=0;entryDy=0;exitX=0.5;exitY=1;exitDx=0;exitDy=0;" edge="1" parent="1" source="NRTdCzGTAj_v-6VQH-Ef-10" target="NRTdCzGTAj_v-6VQH-Ef-22">
          <mxGeometry width="50" height="50" relative="1" as="geometry">
            <mxPoint x="1172.5" y="610" as="sourcePoint" />
            <mxPoint x="1097.5" y="448" as="targetPoint" />
            <Array as="points" />
          </mxGeometry>
        </mxCell>
        <mxCell id="NRTdCzGTAj_v-6VQH-Ef-34" value="" style="endArrow=none;html=1;rounded=0;entryX=0.5;entryY=1;entryDx=0;entryDy=0;exitX=0.5;exitY=0;exitDx=0;exitDy=0;" edge="1" parent="1" source="NRTdCzGTAj_v-6VQH-Ef-28" target="NRTdCzGTAj_v-6VQH-Ef-10">
          <mxGeometry width="50" height="50" relative="1" as="geometry">
            <mxPoint x="1182.5" y="620" as="sourcePoint" />
            <mxPoint x="1107.5" y="458" as="targetPoint" />
            <Array as="points" />
          </mxGeometry>
        </mxCell>
        <mxCell id="NRTdCzGTAj_v-6VQH-Ef-35" value="" style="endArrow=none;html=1;rounded=0;entryX=0.5;entryY=1;entryDx=0;entryDy=0;exitX=1;exitY=0;exitDx=0;exitDy=0;" edge="1" parent="1" source="NRTdCzGTAj_v-6VQH-Ef-26" target="NRTdCzGTAj_v-6VQH-Ef-10">
          <mxGeometry width="50" height="50" relative="1" as="geometry">
            <mxPoint x="1395" y="502" as="sourcePoint" />
            <mxPoint x="1485" y="350" as="targetPoint" />
            <Array as="points" />
          </mxGeometry>
        </mxCell>
        <mxCell id="NRTdCzGTAj_v-6VQH-Ef-38" value="&lt;font style=&quot;font-size: 36px;&quot;&gt;Voo&lt;/font&gt;" style="rounded=0;whiteSpace=wrap;html=1;" vertex="1" parent="1">
          <mxGeometry x="1238.75" y="1420" width="220" height="60" as="geometry" />
        </mxCell>
        <mxCell id="NRTdCzGTAj_v-6VQH-Ef-39" value="" style="endArrow=none;html=1;rounded=0;exitX=0.5;exitY=1;exitDx=0;exitDy=0;entryX=0;entryY=0;entryDx=0;entryDy=0;" edge="1" parent="1" source="NRTdCzGTAj_v-6VQH-Ef-38" target="NRTdCzGTAj_v-6VQH-Ef-48">
          <mxGeometry width="50" height="50" relative="1" as="geometry">
            <mxPoint x="2168.75" y="740" as="sourcePoint" />
            <mxPoint x="1413.900060061314" y="1421.5966386731661" as="targetPoint" />
            <Array as="points" />
          </mxGeometry>
        </mxCell>
        <mxCell id="NRTdCzGTAj_v-6VQH-Ef-40" value="" style="endArrow=none;html=1;rounded=0;entryX=0.5;entryY=1;entryDx=0;entryDy=0;exitX=1;exitY=0;exitDx=0;exitDy=0;" edge="1" parent="1" source="NRTdCzGTAj_v-6VQH-Ef-47" target="NRTdCzGTAj_v-6VQH-Ef-38">
          <mxGeometry width="50" height="50" relative="1" as="geometry">
            <mxPoint x="2018.75" y="1370" as="sourcePoint" />
            <mxPoint x="2178.75" y="950" as="targetPoint" />
            <Array as="points" />
          </mxGeometry>
        </mxCell>
        <mxCell id="NRTdCzGTAj_v-6VQH-Ef-41" value="" style="endArrow=none;html=1;rounded=0;entryX=0.5;entryY=1;entryDx=0;entryDy=0;exitX=1;exitY=0;exitDx=0;exitDy=0;" edge="1" parent="1" source="NRTdCzGTAj_v-6VQH-Ef-46" target="NRTdCzGTAj_v-6VQH-Ef-38">
          <mxGeometry width="50" height="50" relative="1" as="geometry">
            <mxPoint x="1978.75" y="1310" as="sourcePoint" />
            <mxPoint x="2088.75" y="1300" as="targetPoint" />
            <Array as="points" />
          </mxGeometry>
        </mxCell>
        <mxCell id="NRTdCzGTAj_v-6VQH-Ef-42" value="" style="endArrow=none;html=1;rounded=0;entryX=0.5;entryY=1;entryDx=0;entryDy=0;exitX=0;exitY=0;exitDx=0;exitDy=0;" edge="1" parent="1" source="NRTdCzGTAj_v-6VQH-Ef-45" target="NRTdCzGTAj_v-6VQH-Ef-38">
          <mxGeometry width="50" height="50" relative="1" as="geometry">
            <mxPoint x="2258.75" y="1310" as="sourcePoint" />
            <mxPoint x="2198.75" y="970" as="targetPoint" />
            <Array as="points" />
          </mxGeometry>
        </mxCell>
        <mxCell id="NRTdCzGTAj_v-6VQH-Ef-43" value="" style="endArrow=none;html=1;rounded=0;entryX=0.5;entryY=1;entryDx=0;entryDy=0;exitX=0.5;exitY=0;exitDx=0;exitDy=0;" edge="1" parent="1" source="NRTdCzGTAj_v-6VQH-Ef-44" target="NRTdCzGTAj_v-6VQH-Ef-38">
          <mxGeometry width="50" height="50" relative="1" as="geometry">
            <mxPoint x="2118.75" y="1390" as="sourcePoint" />
            <mxPoint x="2208.75" y="980" as="targetPoint" />
            <Array as="points" />
          </mxGeometry>
        </mxCell>
        <mxCell id="NRTdCzGTAj_v-6VQH-Ef-44" value="&lt;font style=&quot;font-size: 36px;&quot;&gt;&lt;u&gt;Id&lt;/u&gt;&lt;/font&gt;" style="ellipse;whiteSpace=wrap;html=1;" vertex="1" parent="1">
          <mxGeometry x="1263.75" y="1710" width="170" height="80" as="geometry" />
        </mxCell>
        <mxCell id="NRTdCzGTAj_v-6VQH-Ef-45" value="&lt;font style=&quot;font-size: 30px;&quot;&gt;descricao&lt;/font&gt;" style="ellipse;whiteSpace=wrap;html=1;" vertex="1" parent="1">
          <mxGeometry x="1418.75" y="1490" width="170" height="80" as="geometry" />
        </mxCell>
        <mxCell id="NRTdCzGTAj_v-6VQH-Ef-46" value="&lt;font style=&quot;font-size: 36px;&quot;&gt;hora&lt;/font&gt;" style="ellipse;whiteSpace=wrap;html=1;" vertex="1" parent="1">
          <mxGeometry x="1098.75" y="1500" width="170" height="80" as="geometry" />
        </mxCell>
        <mxCell id="NRTdCzGTAj_v-6VQH-Ef-47" value="&lt;font style=&quot;font-size: 30px;&quot;&gt;data_saida&lt;/font&gt;" style="ellipse;whiteSpace=wrap;html=1;" vertex="1" parent="1">
          <mxGeometry x="1128.75" y="1600" width="170" height="80" as="geometry" />
        </mxCell>
        <mxCell id="NRTdCzGTAj_v-6VQH-Ef-48" value="&lt;font style=&quot;font-size: 36px;&quot;&gt;destino&lt;/font&gt;" style="ellipse;whiteSpace=wrap;html=1;" vertex="1" parent="1">
          <mxGeometry x="1378.75" y="1600" width="170" height="80" as="geometry" />
        </mxCell>
        <mxCell id="NRTdCzGTAj_v-6VQH-Ef-49" value="" style="endArrow=none;html=1;rounded=0;entryX=0.995;entryY=0.503;entryDx=0;entryDy=0;exitX=0;exitY=0.5;exitDx=0;exitDy=0;entryPerimeter=0;" edge="1" parent="1" source="NRTdCzGTAj_v-6VQH-Ef-38" target="NRTdCzGTAj_v-6VQH-Ef-50">
          <mxGeometry width="50" height="50" relative="1" as="geometry">
            <mxPoint x="1177" y="1440" as="sourcePoint" />
            <mxPoint x="1020" y="1440" as="targetPoint" />
            <Array as="points" />
          </mxGeometry>
        </mxCell>
        <mxCell id="NRTdCzGTAj_v-6VQH-Ef-50" value="&lt;font style=&quot;font-size: 30px;&quot;&gt;(N,1)&lt;/font&gt;" style="text;html=1;align=center;verticalAlign=middle;resizable=0;points=[];autosize=1;strokeColor=none;fillColor=none;" vertex="1" parent="1">
          <mxGeometry x="980" y="1425" width="90" height="50" as="geometry" />
        </mxCell>
        <mxCell id="NRTdCzGTAj_v-6VQH-Ef-51" value="&lt;font style=&quot;font-size: 24px;&quot;&gt;Possui&lt;/font&gt;" style="rhombus;whiteSpace=wrap;html=1;" vertex="1" parent="1">
          <mxGeometry x="760" y="1400" width="120" height="100" as="geometry" />
        </mxCell>
        <mxCell id="NRTdCzGTAj_v-6VQH-Ef-53" value="" style="endArrow=none;html=1;rounded=0;entryX=1;entryY=0.5;entryDx=0;entryDy=0;exitX=-0.005;exitY=0.503;exitDx=0;exitDy=0;exitPerimeter=0;" edge="1" parent="1" source="NRTdCzGTAj_v-6VQH-Ef-50" target="NRTdCzGTAj_v-6VQH-Ef-51">
          <mxGeometry width="50" height="50" relative="1" as="geometry">
            <mxPoint x="920" y="1550" as="sourcePoint" />
            <mxPoint x="1008" y="1461" as="targetPoint" />
            <Array as="points" />
          </mxGeometry>
        </mxCell>
        <mxCell id="NRTdCzGTAj_v-6VQH-Ef-54" value="&lt;font style=&quot;font-size: 30px;&quot;&gt;(1,1)&lt;/font&gt;" style="text;html=1;align=center;verticalAlign=middle;resizable=0;points=[];autosize=1;strokeColor=none;fillColor=none;" vertex="1" parent="1">
          <mxGeometry x="515" y="1425" width="90" height="50" as="geometry" />
        </mxCell>
        <mxCell id="NRTdCzGTAj_v-6VQH-Ef-55" value="" style="endArrow=none;html=1;rounded=0;exitX=0;exitY=0.5;exitDx=0;exitDy=0;entryX=1.003;entryY=0.503;entryDx=0;entryDy=0;entryPerimeter=0;" edge="1" parent="1" source="NRTdCzGTAj_v-6VQH-Ef-51" target="NRTdCzGTAj_v-6VQH-Ef-54">
          <mxGeometry width="50" height="50" relative="1" as="geometry">
            <mxPoint x="990" y="1460" as="sourcePoint" />
            <mxPoint x="660" y="1590" as="targetPoint" />
            <Array as="points" />
          </mxGeometry>
        </mxCell>
        <mxCell id="NRTdCzGTAj_v-6VQH-Ef-67" value="" style="endArrow=none;html=1;rounded=0;entryX=1;entryY=0.5;entryDx=0;entryDy=0;exitX=0.003;exitY=0.503;exitDx=0;exitDy=0;exitPerimeter=0;" edge="1" parent="1" target="NRTdCzGTAj_v-6VQH-Ef-68" source="NRTdCzGTAj_v-6VQH-Ef-54">
          <mxGeometry width="50" height="50" relative="1" as="geometry">
            <mxPoint x="495" y="1455" as="sourcePoint" />
            <mxPoint x="430" y="1225" as="targetPoint" />
            <Array as="points" />
          </mxGeometry>
        </mxCell>
        <mxCell id="NRTdCzGTAj_v-6VQH-Ef-68" value="&lt;font style=&quot;font-size: 36px;&quot;&gt;Veiculos&lt;/font&gt;" style="rounded=0;whiteSpace=wrap;html=1;" vertex="1" parent="1">
          <mxGeometry x="185" y="1420" width="220" height="60" as="geometry" />
        </mxCell>
        <mxCell id="NRTdCzGTAj_v-6VQH-Ef-69" value="" style="endArrow=none;html=1;rounded=0;exitX=0.5;exitY=1;exitDx=0;exitDy=0;entryX=0;entryY=0;entryDx=0;entryDy=0;" edge="1" parent="1" source="NRTdCzGTAj_v-6VQH-Ef-68" target="NRTdCzGTAj_v-6VQH-Ef-78">
          <mxGeometry width="50" height="50" relative="1" as="geometry">
            <mxPoint x="1110" y="745" as="sourcePoint" />
            <mxPoint x="355.150060061314" y="1426.5966386731661" as="targetPoint" />
            <Array as="points" />
          </mxGeometry>
        </mxCell>
        <mxCell id="NRTdCzGTAj_v-6VQH-Ef-70" value="" style="endArrow=none;html=1;rounded=0;entryX=0.5;entryY=1;entryDx=0;entryDy=0;exitX=1;exitY=0;exitDx=0;exitDy=0;" edge="1" parent="1" source="NRTdCzGTAj_v-6VQH-Ef-77" target="NRTdCzGTAj_v-6VQH-Ef-68">
          <mxGeometry width="50" height="50" relative="1" as="geometry">
            <mxPoint x="960" y="1375" as="sourcePoint" />
            <mxPoint x="1120" y="955" as="targetPoint" />
            <Array as="points" />
          </mxGeometry>
        </mxCell>
        <mxCell id="NRTdCzGTAj_v-6VQH-Ef-71" value="" style="endArrow=none;html=1;rounded=0;entryX=0.5;entryY=1;entryDx=0;entryDy=0;exitX=1;exitY=0;exitDx=0;exitDy=0;" edge="1" parent="1" source="NRTdCzGTAj_v-6VQH-Ef-76" target="NRTdCzGTAj_v-6VQH-Ef-68">
          <mxGeometry width="50" height="50" relative="1" as="geometry">
            <mxPoint x="920" y="1315" as="sourcePoint" />
            <mxPoint x="1030" y="1305" as="targetPoint" />
            <Array as="points" />
          </mxGeometry>
        </mxCell>
        <mxCell id="NRTdCzGTAj_v-6VQH-Ef-72" value="" style="endArrow=none;html=1;rounded=0;entryX=0.5;entryY=1;entryDx=0;entryDy=0;exitX=0;exitY=0;exitDx=0;exitDy=0;" edge="1" parent="1" source="NRTdCzGTAj_v-6VQH-Ef-75" target="NRTdCzGTAj_v-6VQH-Ef-68">
          <mxGeometry width="50" height="50" relative="1" as="geometry">
            <mxPoint x="1200" y="1315" as="sourcePoint" />
            <mxPoint x="1140" y="975" as="targetPoint" />
            <Array as="points" />
          </mxGeometry>
        </mxCell>
        <mxCell id="NRTdCzGTAj_v-6VQH-Ef-73" value="" style="endArrow=none;html=1;rounded=0;entryX=0.5;entryY=1;entryDx=0;entryDy=0;exitX=0.5;exitY=0;exitDx=0;exitDy=0;" edge="1" parent="1" source="NRTdCzGTAj_v-6VQH-Ef-74" target="NRTdCzGTAj_v-6VQH-Ef-68">
          <mxGeometry width="50" height="50" relative="1" as="geometry">
            <mxPoint x="1060" y="1395" as="sourcePoint" />
            <mxPoint x="1150" y="985" as="targetPoint" />
            <Array as="points" />
          </mxGeometry>
        </mxCell>
        <mxCell id="NRTdCzGTAj_v-6VQH-Ef-74" value="&lt;font style=&quot;font-size: 36px;&quot;&gt;&lt;u&gt;Id&lt;/u&gt;&lt;/font&gt;" style="ellipse;whiteSpace=wrap;html=1;" vertex="1" parent="1">
          <mxGeometry x="205" y="1715" width="170" height="80" as="geometry" />
        </mxCell>
        <mxCell id="NRTdCzGTAj_v-6VQH-Ef-75" value="&lt;font style=&quot;font-size: 30px;&quot;&gt;tipo&lt;/font&gt;" style="ellipse;whiteSpace=wrap;html=1;" vertex="1" parent="1">
          <mxGeometry x="360" y="1495" width="170" height="80" as="geometry" />
        </mxCell>
        <mxCell id="NRTdCzGTAj_v-6VQH-Ef-76" value="&lt;font style=&quot;font-size: 36px;&quot;&gt;empresa&lt;/font&gt;" style="ellipse;whiteSpace=wrap;html=1;" vertex="1" parent="1">
          <mxGeometry x="40" y="1505" width="170" height="80" as="geometry" />
        </mxCell>
        <mxCell id="NRTdCzGTAj_v-6VQH-Ef-77" value="&lt;font style=&quot;font-size: 30px;&quot;&gt;status&lt;/font&gt;" style="ellipse;whiteSpace=wrap;html=1;" vertex="1" parent="1">
          <mxGeometry x="70" y="1605" width="170" height="80" as="geometry" />
        </mxCell>
        <mxCell id="NRTdCzGTAj_v-6VQH-Ef-78" value="&lt;font style=&quot;font-size: 36px;&quot;&gt;cod_Idf&lt;/font&gt;" style="ellipse;whiteSpace=wrap;html=1;" vertex="1" parent="1">
          <mxGeometry x="320" y="1605" width="170" height="80" as="geometry" />
        </mxCell>
        <mxCell id="NRTdCzGTAj_v-6VQH-Ef-79" value="&lt;font style=&quot;font-size: 30px;&quot;&gt;(1,1)&lt;/font&gt;" style="text;html=1;align=center;verticalAlign=middle;resizable=0;points=[];autosize=1;strokeColor=none;fillColor=none;" vertex="1" parent="1">
          <mxGeometry x="515" y="1825" width="90" height="50" as="geometry" />
        </mxCell>
        <mxCell id="NRTdCzGTAj_v-6VQH-Ef-80" value="" style="endArrow=none;html=1;rounded=0;entryX=1;entryY=0.5;entryDx=0;entryDy=0;exitX=0.003;exitY=0.503;exitDx=0;exitDy=0;exitPerimeter=0;" edge="1" parent="1" source="NRTdCzGTAj_v-6VQH-Ef-79" target="NRTdCzGTAj_v-6VQH-Ef-81">
          <mxGeometry width="50" height="50" relative="1" as="geometry">
            <mxPoint x="485" y="1855" as="sourcePoint" />
            <mxPoint x="420" y="1625" as="targetPoint" />
            <Array as="points" />
          </mxGeometry>
        </mxCell>
        <mxCell id="NRTdCzGTAj_v-6VQH-Ef-81" value="&lt;font style=&quot;font-size: 36px;&quot;&gt;Veiculos&lt;/font&gt;" style="rounded=0;whiteSpace=wrap;html=1;" vertex="1" parent="1">
          <mxGeometry x="175" y="1820" width="220" height="60" as="geometry" />
        </mxCell>
        <mxCell id="NRTdCzGTAj_v-6VQH-Ef-82" value="" style="endArrow=none;html=1;rounded=0;exitX=0.5;exitY=1;exitDx=0;exitDy=0;entryX=0;entryY=0;entryDx=0;entryDy=0;" edge="1" parent="1" source="NRTdCzGTAj_v-6VQH-Ef-81" target="NRTdCzGTAj_v-6VQH-Ef-90">
          <mxGeometry width="50" height="50" relative="1" as="geometry">
            <mxPoint x="1100" y="1145" as="sourcePoint" />
            <mxPoint x="345.150060061314" y="1826.5966386731661" as="targetPoint" />
            <Array as="points" />
          </mxGeometry>
        </mxCell>
        <mxCell id="NRTdCzGTAj_v-6VQH-Ef-83" value="" style="endArrow=none;html=1;rounded=0;entryX=0.5;entryY=1;entryDx=0;entryDy=0;exitX=1;exitY=0;exitDx=0;exitDy=0;" edge="1" parent="1" source="NRTdCzGTAj_v-6VQH-Ef-89" target="NRTdCzGTAj_v-6VQH-Ef-81">
          <mxGeometry width="50" height="50" relative="1" as="geometry">
            <mxPoint x="950" y="1775" as="sourcePoint" />
            <mxPoint x="1110" y="1355" as="targetPoint" />
            <Array as="points" />
          </mxGeometry>
        </mxCell>
        <mxCell id="NRTdCzGTAj_v-6VQH-Ef-84" value="" style="endArrow=none;html=1;rounded=0;entryX=0.5;entryY=1;entryDx=0;entryDy=0;exitX=1;exitY=0;exitDx=0;exitDy=0;" edge="1" parent="1" target="NRTdCzGTAj_v-6VQH-Ef-81" source="NRTdCzGTAj_v-6VQH-Ef-94">
          <mxGeometry width="50" height="50" relative="1" as="geometry">
            <mxPoint x="175" y="1917" as="sourcePoint" />
            <mxPoint x="1020" y="1705" as="targetPoint" />
            <Array as="points" />
          </mxGeometry>
        </mxCell>
        <mxCell id="NRTdCzGTAj_v-6VQH-Ef-85" value="" style="endArrow=none;html=1;rounded=0;entryX=0.5;entryY=1;entryDx=0;entryDy=0;exitX=0;exitY=0;exitDx=0;exitDy=0;" edge="1" parent="1" source="NRTdCzGTAj_v-6VQH-Ef-88" target="NRTdCzGTAj_v-6VQH-Ef-81">
          <mxGeometry width="50" height="50" relative="1" as="geometry">
            <mxPoint x="1190" y="1715" as="sourcePoint" />
            <mxPoint x="1130" y="1375" as="targetPoint" />
            <Array as="points" />
          </mxGeometry>
        </mxCell>
        <mxCell id="NRTdCzGTAj_v-6VQH-Ef-86" value="" style="endArrow=none;html=1;rounded=0;entryX=0.5;entryY=1;entryDx=0;entryDy=0;exitX=0.5;exitY=0;exitDx=0;exitDy=0;" edge="1" parent="1" source="NRTdCzGTAj_v-6VQH-Ef-87" target="NRTdCzGTAj_v-6VQH-Ef-81">
          <mxGeometry width="50" height="50" relative="1" as="geometry">
            <mxPoint x="1050" y="1795" as="sourcePoint" />
            <mxPoint x="1140" y="1385" as="targetPoint" />
            <Array as="points" />
          </mxGeometry>
        </mxCell>
        <mxCell id="NRTdCzGTAj_v-6VQH-Ef-87" value="&lt;font style=&quot;font-size: 36px;&quot;&gt;&lt;u&gt;Id&lt;/u&gt;&lt;/font&gt;" style="ellipse;whiteSpace=wrap;html=1;" vertex="1" parent="1">
          <mxGeometry x="195" y="2115" width="170" height="80" as="geometry" />
        </mxCell>
        <mxCell id="NRTdCzGTAj_v-6VQH-Ef-88" value="&lt;font style=&quot;font-size: 30px;&quot;&gt;tipo&lt;/font&gt;" style="ellipse;whiteSpace=wrap;html=1;" vertex="1" parent="1">
          <mxGeometry x="350" y="1895" width="170" height="80" as="geometry" />
        </mxCell>
        <mxCell id="NRTdCzGTAj_v-6VQH-Ef-89" value="&lt;font style=&quot;font-size: 30px;&quot;&gt;status&lt;/font&gt;" style="ellipse;whiteSpace=wrap;html=1;" vertex="1" parent="1">
          <mxGeometry x="60" y="2005" width="170" height="80" as="geometry" />
        </mxCell>
        <mxCell id="NRTdCzGTAj_v-6VQH-Ef-90" value="&lt;font style=&quot;font-size: 36px;&quot;&gt;cod_Idf&lt;/font&gt;" style="ellipse;whiteSpace=wrap;html=1;" vertex="1" parent="1">
          <mxGeometry x="310" y="2005" width="170" height="80" as="geometry" />
        </mxCell>
        <mxCell id="NRTdCzGTAj_v-6VQH-Ef-91" value="&lt;font style=&quot;font-size: 24px;&quot;&gt;Possui&lt;/font&gt;" style="rhombus;whiteSpace=wrap;html=1;" vertex="1" parent="1">
          <mxGeometry x="770" y="1800" width="120" height="100" as="geometry" />
        </mxCell>
        <mxCell id="NRTdCzGTAj_v-6VQH-Ef-92" value="" style="endArrow=none;html=1;rounded=0;entryX=1;entryY=0.5;entryDx=0;entryDy=0;exitX=0;exitY=0.5;exitDx=0;exitDy=0;exitPerimeter=0;" edge="1" parent="1" target="NRTdCzGTAj_v-6VQH-Ef-91" source="NRTdCzGTAj_v-6VQH-Ef-95">
          <mxGeometry width="50" height="50" relative="1" as="geometry">
            <mxPoint x="1035" y="1850" as="sourcePoint" />
            <mxPoint x="1063" y="1861" as="targetPoint" />
            <Array as="points" />
          </mxGeometry>
        </mxCell>
        <mxCell id="NRTdCzGTAj_v-6VQH-Ef-93" value="" style="endArrow=none;html=1;rounded=0;exitX=0;exitY=0.5;exitDx=0;exitDy=0;" edge="1" parent="1" source="NRTdCzGTAj_v-6VQH-Ef-91" target="NRTdCzGTAj_v-6VQH-Ef-79">
          <mxGeometry width="50" height="50" relative="1" as="geometry">
            <mxPoint x="1045" y="1860" as="sourcePoint" />
            <mxPoint x="590" y="1850" as="targetPoint" />
            <Array as="points" />
          </mxGeometry>
        </mxCell>
        <mxCell id="NRTdCzGTAj_v-6VQH-Ef-94" value="&lt;font style=&quot;font-size: 36px;&quot;&gt;empresa&lt;/font&gt;" style="ellipse;whiteSpace=wrap;html=1;" vertex="1" parent="1">
          <mxGeometry x="25" y="1900" width="170" height="80" as="geometry" />
        </mxCell>
        <mxCell id="NRTdCzGTAj_v-6VQH-Ef-95" value="&lt;font style=&quot;font-size: 30px;&quot;&gt;(N,1)&lt;/font&gt;" style="text;html=1;align=center;verticalAlign=middle;resizable=0;points=[];autosize=1;strokeColor=none;fillColor=none;" vertex="1" parent="1">
          <mxGeometry x="980" y="1825" width="90" height="50" as="geometry" />
        </mxCell>
        <mxCell id="NRTdCzGTAj_v-6VQH-Ef-96" value="&lt;font style=&quot;font-size: 36px;&quot;&gt;Manutencao&lt;/font&gt;" style="rounded=0;whiteSpace=wrap;html=1;" vertex="1" parent="1">
          <mxGeometry x="1275" y="1820" width="220" height="60" as="geometry" />
        </mxCell>
        <mxCell id="NRTdCzGTAj_v-6VQH-Ef-97" value="" style="endArrow=none;html=1;rounded=0;exitX=0.5;exitY=1;exitDx=0;exitDy=0;entryX=0;entryY=0;entryDx=0;entryDy=0;" edge="1" parent="1" source="NRTdCzGTAj_v-6VQH-Ef-96" target="NRTdCzGTAj_v-6VQH-Ef-106">
          <mxGeometry width="50" height="50" relative="1" as="geometry">
            <mxPoint x="2208.75" y="1145" as="sourcePoint" />
            <mxPoint x="1453.900060061314" y="1826.5966386731661" as="targetPoint" />
            <Array as="points" />
          </mxGeometry>
        </mxCell>
        <mxCell id="NRTdCzGTAj_v-6VQH-Ef-98" value="" style="endArrow=none;html=1;rounded=0;entryX=0.5;entryY=1;entryDx=0;entryDy=0;exitX=1;exitY=0;exitDx=0;exitDy=0;" edge="1" parent="1" source="NRTdCzGTAj_v-6VQH-Ef-105" target="NRTdCzGTAj_v-6VQH-Ef-96">
          <mxGeometry width="50" height="50" relative="1" as="geometry">
            <mxPoint x="2058.75" y="1775" as="sourcePoint" />
            <mxPoint x="2218.75" y="1355" as="targetPoint" />
            <Array as="points" />
          </mxGeometry>
        </mxCell>
        <mxCell id="NRTdCzGTAj_v-6VQH-Ef-99" value="" style="endArrow=none;html=1;rounded=0;entryX=0.5;entryY=1;entryDx=0;entryDy=0;exitX=1;exitY=0;exitDx=0;exitDy=0;" edge="1" parent="1" source="NRTdCzGTAj_v-6VQH-Ef-104" target="NRTdCzGTAj_v-6VQH-Ef-96">
          <mxGeometry width="50" height="50" relative="1" as="geometry">
            <mxPoint x="2018.75" y="1715" as="sourcePoint" />
            <mxPoint x="2128.75" y="1705" as="targetPoint" />
            <Array as="points" />
          </mxGeometry>
        </mxCell>
        <mxCell id="NRTdCzGTAj_v-6VQH-Ef-100" value="" style="endArrow=none;html=1;rounded=0;entryX=0.5;entryY=1;entryDx=0;entryDy=0;exitX=0;exitY=0;exitDx=0;exitDy=0;" edge="1" parent="1" source="NRTdCzGTAj_v-6VQH-Ef-103" target="NRTdCzGTAj_v-6VQH-Ef-96">
          <mxGeometry width="50" height="50" relative="1" as="geometry">
            <mxPoint x="2298.75" y="1715" as="sourcePoint" />
            <mxPoint x="2238.75" y="1375" as="targetPoint" />
            <Array as="points" />
          </mxGeometry>
        </mxCell>
        <mxCell id="NRTdCzGTAj_v-6VQH-Ef-101" value="" style="endArrow=none;html=1;rounded=0;entryX=0.5;entryY=1;entryDx=0;entryDy=0;exitX=0.5;exitY=0;exitDx=0;exitDy=0;" edge="1" parent="1" source="NRTdCzGTAj_v-6VQH-Ef-102" target="NRTdCzGTAj_v-6VQH-Ef-96">
          <mxGeometry width="50" height="50" relative="1" as="geometry">
            <mxPoint x="2158.75" y="1795" as="sourcePoint" />
            <mxPoint x="2248.75" y="1385" as="targetPoint" />
            <Array as="points" />
          </mxGeometry>
        </mxCell>
        <mxCell id="NRTdCzGTAj_v-6VQH-Ef-102" value="&lt;font style=&quot;font-size: 36px;&quot;&gt;&lt;u&gt;Id&lt;/u&gt;&lt;/font&gt;" style="ellipse;whiteSpace=wrap;html=1;" vertex="1" parent="1">
          <mxGeometry x="1303.75" y="2115" width="170" height="80" as="geometry" />
        </mxCell>
        <mxCell id="NRTdCzGTAj_v-6VQH-Ef-103" value="&lt;font style=&quot;font-size: 30px;&quot;&gt;descricao&lt;/font&gt;" style="ellipse;whiteSpace=wrap;html=1;" vertex="1" parent="1">
          <mxGeometry x="1458.75" y="1895" width="170" height="80" as="geometry" />
        </mxCell>
        <mxCell id="NRTdCzGTAj_v-6VQH-Ef-104" value="&lt;font style=&quot;font-size: 36px;&quot;&gt;valor&lt;/font&gt;" style="ellipse;whiteSpace=wrap;html=1;" vertex="1" parent="1">
          <mxGeometry x="1138.75" y="1905" width="170" height="80" as="geometry" />
        </mxCell>
        <mxCell id="NRTdCzGTAj_v-6VQH-Ef-105" value="&lt;font style=&quot;font-size: 30px;&quot;&gt;data_inicio&lt;/font&gt;" style="ellipse;whiteSpace=wrap;html=1;" vertex="1" parent="1">
          <mxGeometry x="1168.75" y="2005" width="170" height="80" as="geometry" />
        </mxCell>
        <mxCell id="NRTdCzGTAj_v-6VQH-Ef-106" value="&lt;font style=&quot;font-size: 36px;&quot;&gt;data_fim&lt;/font&gt;" style="ellipse;whiteSpace=wrap;html=1;" vertex="1" parent="1">
          <mxGeometry x="1418.75" y="2005" width="170" height="80" as="geometry" />
        </mxCell>
        <mxCell id="NRTdCzGTAj_v-6VQH-Ef-107" value="" style="endArrow=none;html=1;rounded=0;entryX=1;entryY=0.5;entryDx=0;entryDy=0;exitX=0;exitY=0.5;exitDx=0;exitDy=0;entryPerimeter=0;" edge="1" parent="1" source="NRTdCzGTAj_v-6VQH-Ef-96" target="NRTdCzGTAj_v-6VQH-Ef-95">
          <mxGeometry width="50" height="50" relative="1" as="geometry">
            <mxPoint x="1217" y="1845" as="sourcePoint" />
            <mxPoint x="1110" y="1855" as="targetPoint" />
            <Array as="points" />
          </mxGeometry>
        </mxCell>
        <mxCell id="NRTdCzGTAj_v-6VQH-Ef-108" value="&lt;font style=&quot;font-size: 30px;&quot;&gt;(1,1)&lt;/font&gt;" style="text;html=1;align=center;verticalAlign=middle;resizable=0;points=[];autosize=1;strokeColor=none;fillColor=none;" vertex="1" parent="1">
          <mxGeometry x="522.5" y="2285" width="90" height="50" as="geometry" />
        </mxCell>
        <mxCell id="NRTdCzGTAj_v-6VQH-Ef-109" value="" style="endArrow=none;html=1;rounded=0;entryX=1;entryY=0.5;entryDx=0;entryDy=0;exitX=0.003;exitY=0.503;exitDx=0;exitDy=0;exitPerimeter=0;" edge="1" parent="1" source="NRTdCzGTAj_v-6VQH-Ef-108" target="NRTdCzGTAj_v-6VQH-Ef-110">
          <mxGeometry width="50" height="50" relative="1" as="geometry">
            <mxPoint x="492.5" y="2315" as="sourcePoint" />
            <mxPoint x="427.5" y="2085" as="targetPoint" />
            <Array as="points" />
          </mxGeometry>
        </mxCell>
        <mxCell id="NRTdCzGTAj_v-6VQH-Ef-110" value="&lt;font style=&quot;font-size: 36px;&quot;&gt;Piloto&lt;/font&gt;" style="rounded=0;whiteSpace=wrap;html=1;" vertex="1" parent="1">
          <mxGeometry x="182.5" y="2280" width="220" height="60" as="geometry" />
        </mxCell>
        <mxCell id="NRTdCzGTAj_v-6VQH-Ef-112" value="" style="endArrow=none;html=1;rounded=0;entryX=0.5;entryY=1;entryDx=0;entryDy=0;exitX=1;exitY=0;exitDx=0;exitDy=0;" edge="1" parent="1" source="NRTdCzGTAj_v-6VQH-Ef-118" target="NRTdCzGTAj_v-6VQH-Ef-110">
          <mxGeometry width="50" height="50" relative="1" as="geometry">
            <mxPoint x="957.5" y="2235" as="sourcePoint" />
            <mxPoint x="1117.5" y="1815" as="targetPoint" />
            <Array as="points" />
          </mxGeometry>
        </mxCell>
        <mxCell id="NRTdCzGTAj_v-6VQH-Ef-113" value="" style="endArrow=none;html=1;rounded=0;entryX=0.5;entryY=1;entryDx=0;entryDy=0;exitX=1;exitY=0;exitDx=0;exitDy=0;" edge="1" parent="1" source="NRTdCzGTAj_v-6VQH-Ef-121" target="NRTdCzGTAj_v-6VQH-Ef-110">
          <mxGeometry width="50" height="50" relative="1" as="geometry">
            <mxPoint x="182.5" y="2377" as="sourcePoint" />
            <mxPoint x="1027.5" y="2165" as="targetPoint" />
            <Array as="points" />
          </mxGeometry>
        </mxCell>
        <mxCell id="NRTdCzGTAj_v-6VQH-Ef-114" value="" style="endArrow=none;html=1;rounded=0;entryX=0.5;entryY=1;entryDx=0;entryDy=0;exitX=0;exitY=0;exitDx=0;exitDy=0;" edge="1" parent="1" source="NRTdCzGTAj_v-6VQH-Ef-117" target="NRTdCzGTAj_v-6VQH-Ef-110">
          <mxGeometry width="50" height="50" relative="1" as="geometry">
            <mxPoint x="1197.5" y="2175" as="sourcePoint" />
            <mxPoint x="1137.5" y="1835" as="targetPoint" />
            <Array as="points" />
          </mxGeometry>
        </mxCell>
        <mxCell id="NRTdCzGTAj_v-6VQH-Ef-115" value="" style="endArrow=none;html=1;rounded=0;entryX=0.5;entryY=1;entryDx=0;entryDy=0;exitX=0.5;exitY=0;exitDx=0;exitDy=0;" edge="1" parent="1" source="NRTdCzGTAj_v-6VQH-Ef-116" target="NRTdCzGTAj_v-6VQH-Ef-110">
          <mxGeometry width="50" height="50" relative="1" as="geometry">
            <mxPoint x="1057.5" y="2255" as="sourcePoint" />
            <mxPoint x="1147.5" y="1845" as="targetPoint" />
            <Array as="points" />
          </mxGeometry>
        </mxCell>
        <mxCell id="NRTdCzGTAj_v-6VQH-Ef-116" value="&lt;font style=&quot;font-size: 36px;&quot;&gt;&lt;u&gt;Id&lt;/u&gt;&lt;/font&gt;" style="ellipse;whiteSpace=wrap;html=1;" vertex="1" parent="1">
          <mxGeometry x="290" y="2495" width="170" height="80" as="geometry" />
        </mxCell>
        <mxCell id="NRTdCzGTAj_v-6VQH-Ef-117" value="&lt;font style=&quot;font-size: 30px;&quot;&gt;status&lt;/font&gt;" style="ellipse;whiteSpace=wrap;html=1;" vertex="1" parent="1">
          <mxGeometry x="365" y="2370" width="170" height="80" as="geometry" />
        </mxCell>
        <mxCell id="NRTdCzGTAj_v-6VQH-Ef-118" value="&lt;font style=&quot;font-size: 30px;&quot;&gt;nome&lt;/font&gt;" style="ellipse;whiteSpace=wrap;html=1;" vertex="1" parent="1">
          <mxGeometry x="60" y="2480" width="170" height="80" as="geometry" />
        </mxCell>
        <mxCell id="NRTdCzGTAj_v-6VQH-Ef-120" value="" style="endArrow=none;html=1;rounded=0;exitX=0;exitY=0.5;exitDx=0;exitDy=0;" edge="1" parent="1" target="NRTdCzGTAj_v-6VQH-Ef-108" source="NRTdCzGTAj_v-6VQH-Ef-122">
          <mxGeometry width="50" height="50" relative="1" as="geometry">
            <mxPoint x="777.5" y="2310" as="sourcePoint" />
            <mxPoint x="597.5" y="2310" as="targetPoint" />
            <Array as="points" />
          </mxGeometry>
        </mxCell>
        <mxCell id="NRTdCzGTAj_v-6VQH-Ef-121" value="&lt;font style=&quot;font-size: 36px;&quot;&gt;cpf&lt;/font&gt;" style="ellipse;whiteSpace=wrap;html=1;" vertex="1" parent="1">
          <mxGeometry x="40" y="2370" width="170" height="80" as="geometry" />
        </mxCell>
        <mxCell id="NRTdCzGTAj_v-6VQH-Ef-122" value="&lt;font style=&quot;font-size: 24px;&quot;&gt;Realiza&lt;/font&gt;" style="rhombus;whiteSpace=wrap;html=1;" vertex="1" parent="1">
          <mxGeometry x="770" y="2260" width="120" height="100" as="geometry" />
        </mxCell>
        <mxCell id="NRTdCzGTAj_v-6VQH-Ef-123" value="" style="endArrow=none;html=1;rounded=0;entryX=1;entryY=0.5;entryDx=0;entryDy=0;exitX=0;exitY=0.5;exitDx=0;exitDy=0;exitPerimeter=0;" edge="1" parent="1" source="NRTdCzGTAj_v-6VQH-Ef-124" target="NRTdCzGTAj_v-6VQH-Ef-122">
          <mxGeometry width="50" height="50" relative="1" as="geometry">
            <mxPoint x="1060" y="2310" as="sourcePoint" />
            <mxPoint x="915" y="2310" as="targetPoint" />
            <Array as="points" />
          </mxGeometry>
        </mxCell>
        <mxCell id="NRTdCzGTAj_v-6VQH-Ef-124" value="&lt;font style=&quot;font-size: 30px;&quot;&gt;(N,1)&lt;/font&gt;" style="text;html=1;align=center;verticalAlign=middle;resizable=0;points=[];autosize=1;strokeColor=none;fillColor=none;" vertex="1" parent="1">
          <mxGeometry x="1005" y="2285" width="90" height="50" as="geometry" />
        </mxCell>
        <mxCell id="NRTdCzGTAj_v-6VQH-Ef-136" value="" style="endArrow=none;html=1;rounded=0;entryX=1;entryY=0.5;entryDx=0;entryDy=0;exitX=0;exitY=0.5;exitDx=0;exitDy=0;entryPerimeter=0;" edge="1" parent="1" source="NRTdCzGTAj_v-6VQH-Ef-150" target="NRTdCzGTAj_v-6VQH-Ef-124">
          <mxGeometry width="50" height="50" relative="1" as="geometry">
            <mxPoint x="1290" y="2309.9999999999995" as="sourcePoint" />
            <mxPoint x="1135" y="2315" as="targetPoint" />
            <Array as="points" />
          </mxGeometry>
        </mxCell>
        <mxCell id="NRTdCzGTAj_v-6VQH-Ef-150" value="&lt;font style=&quot;font-size: 36px;&quot;&gt;Voo&lt;/font&gt;" style="rounded=0;whiteSpace=wrap;html=1;" vertex="1" parent="1">
          <mxGeometry x="1320" y="2280" width="220" height="60" as="geometry" />
        </mxCell>
        <mxCell id="NRTdCzGTAj_v-6VQH-Ef-151" value="" style="endArrow=none;html=1;rounded=0;exitX=0.5;exitY=1;exitDx=0;exitDy=0;entryX=0;entryY=0;entryDx=0;entryDy=0;" edge="1" parent="1" source="NRTdCzGTAj_v-6VQH-Ef-150" target="NRTdCzGTAj_v-6VQH-Ef-160">
          <mxGeometry width="50" height="50" relative="1" as="geometry">
            <mxPoint x="2250" y="1600" as="sourcePoint" />
            <mxPoint x="1495.150060061314" y="2281.596638673166" as="targetPoint" />
            <Array as="points" />
          </mxGeometry>
        </mxCell>
        <mxCell id="NRTdCzGTAj_v-6VQH-Ef-152" value="" style="endArrow=none;html=1;rounded=0;entryX=0.5;entryY=1;entryDx=0;entryDy=0;exitX=1;exitY=0;exitDx=0;exitDy=0;" edge="1" parent="1" source="NRTdCzGTAj_v-6VQH-Ef-159" target="NRTdCzGTAj_v-6VQH-Ef-150">
          <mxGeometry width="50" height="50" relative="1" as="geometry">
            <mxPoint x="2100" y="2230" as="sourcePoint" />
            <mxPoint x="2260" y="1810" as="targetPoint" />
            <Array as="points" />
          </mxGeometry>
        </mxCell>
        <mxCell id="NRTdCzGTAj_v-6VQH-Ef-153" value="" style="endArrow=none;html=1;rounded=0;entryX=0.5;entryY=1;entryDx=0;entryDy=0;exitX=1;exitY=0;exitDx=0;exitDy=0;" edge="1" parent="1" source="NRTdCzGTAj_v-6VQH-Ef-158" target="NRTdCzGTAj_v-6VQH-Ef-150">
          <mxGeometry width="50" height="50" relative="1" as="geometry">
            <mxPoint x="2060" y="2170" as="sourcePoint" />
            <mxPoint x="2170" y="2160" as="targetPoint" />
            <Array as="points" />
          </mxGeometry>
        </mxCell>
        <mxCell id="NRTdCzGTAj_v-6VQH-Ef-154" value="" style="endArrow=none;html=1;rounded=0;entryX=0.5;entryY=1;entryDx=0;entryDy=0;exitX=0;exitY=0;exitDx=0;exitDy=0;" edge="1" parent="1" source="NRTdCzGTAj_v-6VQH-Ef-157" target="NRTdCzGTAj_v-6VQH-Ef-150">
          <mxGeometry width="50" height="50" relative="1" as="geometry">
            <mxPoint x="2340" y="2170" as="sourcePoint" />
            <mxPoint x="2280" y="1830" as="targetPoint" />
            <Array as="points" />
          </mxGeometry>
        </mxCell>
        <mxCell id="NRTdCzGTAj_v-6VQH-Ef-155" value="" style="endArrow=none;html=1;rounded=0;entryX=0.5;entryY=1;entryDx=0;entryDy=0;exitX=0.5;exitY=0;exitDx=0;exitDy=0;" edge="1" parent="1" source="NRTdCzGTAj_v-6VQH-Ef-156" target="NRTdCzGTAj_v-6VQH-Ef-150">
          <mxGeometry width="50" height="50" relative="1" as="geometry">
            <mxPoint x="2200" y="2250" as="sourcePoint" />
            <mxPoint x="2290" y="1840" as="targetPoint" />
            <Array as="points" />
          </mxGeometry>
        </mxCell>
        <mxCell id="NRTdCzGTAj_v-6VQH-Ef-156" value="&lt;font style=&quot;font-size: 36px;&quot;&gt;&lt;u&gt;Id&lt;/u&gt;&lt;/font&gt;" style="ellipse;whiteSpace=wrap;html=1;" vertex="1" parent="1">
          <mxGeometry x="1345" y="2530" width="170" height="80" as="geometry" />
        </mxCell>
        <mxCell id="NRTdCzGTAj_v-6VQH-Ef-157" value="&lt;font style=&quot;font-size: 30px;&quot;&gt;descricao&lt;/font&gt;" style="ellipse;whiteSpace=wrap;html=1;" vertex="1" parent="1">
          <mxGeometry x="1500" y="2350" width="170" height="80" as="geometry" />
        </mxCell>
        <mxCell id="NRTdCzGTAj_v-6VQH-Ef-158" value="&lt;font style=&quot;font-size: 36px;&quot;&gt;hora&lt;/font&gt;" style="ellipse;whiteSpace=wrap;html=1;" vertex="1" parent="1">
          <mxGeometry x="1175" y="2350" width="170" height="80" as="geometry" />
        </mxCell>
        <mxCell id="NRTdCzGTAj_v-6VQH-Ef-159" value="&lt;font style=&quot;font-size: 30px;&quot;&gt;data_saida&lt;/font&gt;" style="ellipse;whiteSpace=wrap;html=1;" vertex="1" parent="1">
          <mxGeometry x="1220" y="2440" width="170" height="80" as="geometry" />
        </mxCell>
        <mxCell id="NRTdCzGTAj_v-6VQH-Ef-160" value="&lt;font style=&quot;font-size: 36px;&quot;&gt;destino&lt;/font&gt;" style="ellipse;whiteSpace=wrap;html=1;" vertex="1" parent="1">
          <mxGeometry x="1450" y="2440" width="170" height="80" as="geometry" />
        </mxCell>
        <mxCell id="NRTdCzGTAj_v-6VQH-Ef-161" value="&lt;font style=&quot;font-size: 30px;&quot;&gt;(1,1)&lt;/font&gt;" style="text;html=1;align=center;verticalAlign=middle;resizable=0;points=[];autosize=1;strokeColor=none;fillColor=none;" vertex="1" parent="1">
          <mxGeometry x="522.5" y="2655" width="90" height="50" as="geometry" />
        </mxCell>
        <mxCell id="NRTdCzGTAj_v-6VQH-Ef-162" value="" style="endArrow=none;html=1;rounded=0;entryX=1;entryY=0.5;entryDx=0;entryDy=0;exitX=0.003;exitY=0.503;exitDx=0;exitDy=0;exitPerimeter=0;" edge="1" parent="1" source="NRTdCzGTAj_v-6VQH-Ef-161" target="NRTdCzGTAj_v-6VQH-Ef-163">
          <mxGeometry width="50" height="50" relative="1" as="geometry">
            <mxPoint x="492.5" y="2685" as="sourcePoint" />
            <mxPoint x="427.5" y="2455" as="targetPoint" />
            <Array as="points" />
          </mxGeometry>
        </mxCell>
        <mxCell id="NRTdCzGTAj_v-6VQH-Ef-163" value="&lt;font style=&quot;font-size: 36px;&quot;&gt;Piloto&lt;/font&gt;" style="rounded=0;whiteSpace=wrap;html=1;" vertex="1" parent="1">
          <mxGeometry x="182.5" y="2650" width="220" height="60" as="geometry" />
        </mxCell>
        <mxCell id="NRTdCzGTAj_v-6VQH-Ef-164" value="" style="endArrow=none;html=1;rounded=0;entryX=0.5;entryY=1;entryDx=0;entryDy=0;exitX=1;exitY=0;exitDx=0;exitDy=0;" edge="1" parent="1" source="NRTdCzGTAj_v-6VQH-Ef-170" target="NRTdCzGTAj_v-6VQH-Ef-163">
          <mxGeometry width="50" height="50" relative="1" as="geometry">
            <mxPoint x="957.5" y="2605" as="sourcePoint" />
            <mxPoint x="1117.5" y="2185" as="targetPoint" />
            <Array as="points" />
          </mxGeometry>
        </mxCell>
        <mxCell id="NRTdCzGTAj_v-6VQH-Ef-165" value="" style="endArrow=none;html=1;rounded=0;entryX=0.5;entryY=1;entryDx=0;entryDy=0;exitX=1;exitY=0;exitDx=0;exitDy=0;" edge="1" parent="1" source="NRTdCzGTAj_v-6VQH-Ef-172" target="NRTdCzGTAj_v-6VQH-Ef-163">
          <mxGeometry width="50" height="50" relative="1" as="geometry">
            <mxPoint x="182.5" y="2747" as="sourcePoint" />
            <mxPoint x="1027.5" y="2535" as="targetPoint" />
            <Array as="points" />
          </mxGeometry>
        </mxCell>
        <mxCell id="NRTdCzGTAj_v-6VQH-Ef-166" value="" style="endArrow=none;html=1;rounded=0;entryX=0.5;entryY=1;entryDx=0;entryDy=0;exitX=0;exitY=0;exitDx=0;exitDy=0;" edge="1" parent="1" source="NRTdCzGTAj_v-6VQH-Ef-169" target="NRTdCzGTAj_v-6VQH-Ef-163">
          <mxGeometry width="50" height="50" relative="1" as="geometry">
            <mxPoint x="1197.5" y="2545" as="sourcePoint" />
            <mxPoint x="1137.5" y="2205" as="targetPoint" />
            <Array as="points" />
          </mxGeometry>
        </mxCell>
        <mxCell id="NRTdCzGTAj_v-6VQH-Ef-167" value="" style="endArrow=none;html=1;rounded=0;entryX=0.5;entryY=1;entryDx=0;entryDy=0;exitX=0.5;exitY=0;exitDx=0;exitDy=0;" edge="1" parent="1" source="NRTdCzGTAj_v-6VQH-Ef-168" target="NRTdCzGTAj_v-6VQH-Ef-163">
          <mxGeometry width="50" height="50" relative="1" as="geometry">
            <mxPoint x="1057.5" y="2625" as="sourcePoint" />
            <mxPoint x="1147.5" y="2215" as="targetPoint" />
            <Array as="points" />
          </mxGeometry>
        </mxCell>
        <mxCell id="NRTdCzGTAj_v-6VQH-Ef-168" value="&lt;font style=&quot;font-size: 36px;&quot;&gt;&lt;u&gt;Id&lt;/u&gt;&lt;/font&gt;" style="ellipse;whiteSpace=wrap;html=1;" vertex="1" parent="1">
          <mxGeometry x="290" y="2865" width="170" height="80" as="geometry" />
        </mxCell>
        <mxCell id="NRTdCzGTAj_v-6VQH-Ef-169" value="&lt;font style=&quot;font-size: 30px;&quot;&gt;status&lt;/font&gt;" style="ellipse;whiteSpace=wrap;html=1;" vertex="1" parent="1">
          <mxGeometry x="365" y="2740" width="170" height="80" as="geometry" />
        </mxCell>
        <mxCell id="NRTdCzGTAj_v-6VQH-Ef-170" value="&lt;font style=&quot;font-size: 30px;&quot;&gt;nome&lt;/font&gt;" style="ellipse;whiteSpace=wrap;html=1;" vertex="1" parent="1">
          <mxGeometry x="60" y="2850" width="170" height="80" as="geometry" />
        </mxCell>
        <mxCell id="NRTdCzGTAj_v-6VQH-Ef-171" value="" style="endArrow=none;html=1;rounded=0;exitX=0;exitY=0.5;exitDx=0;exitDy=0;" edge="1" parent="1" source="NRTdCzGTAj_v-6VQH-Ef-173" target="NRTdCzGTAj_v-6VQH-Ef-161">
          <mxGeometry width="50" height="50" relative="1" as="geometry">
            <mxPoint x="777.5" y="2680" as="sourcePoint" />
            <mxPoint x="597.5" y="2680" as="targetPoint" />
            <Array as="points" />
          </mxGeometry>
        </mxCell>
        <mxCell id="NRTdCzGTAj_v-6VQH-Ef-172" value="&lt;font style=&quot;font-size: 36px;&quot;&gt;cpf&lt;/font&gt;" style="ellipse;whiteSpace=wrap;html=1;" vertex="1" parent="1">
          <mxGeometry x="40" y="2740" width="170" height="80" as="geometry" />
        </mxCell>
        <mxCell id="NRTdCzGTAj_v-6VQH-Ef-173" value="&lt;font style=&quot;font-size: 24px;&quot;&gt;Organiza&lt;/font&gt;" style="rhombus;whiteSpace=wrap;html=1;" vertex="1" parent="1">
          <mxGeometry x="755" y="2620" width="150" height="120" as="geometry" />
        </mxCell>
        <mxCell id="NRTdCzGTAj_v-6VQH-Ef-174" value="" style="endArrow=none;html=1;rounded=0;entryX=1;entryY=0.5;entryDx=0;entryDy=0;exitX=0;exitY=0.5;exitDx=0;exitDy=0;exitPerimeter=0;" edge="1" parent="1" source="NRTdCzGTAj_v-6VQH-Ef-175" target="NRTdCzGTAj_v-6VQH-Ef-173">
          <mxGeometry width="50" height="50" relative="1" as="geometry">
            <mxPoint x="1060" y="2680" as="sourcePoint" />
            <mxPoint x="915" y="2680" as="targetPoint" />
            <Array as="points" />
          </mxGeometry>
        </mxCell>
        <mxCell id="NRTdCzGTAj_v-6VQH-Ef-175" value="&lt;font style=&quot;font-size: 30px;&quot;&gt;(N,1)&lt;/font&gt;" style="text;html=1;align=center;verticalAlign=middle;resizable=0;points=[];autosize=1;strokeColor=none;fillColor=none;" vertex="1" parent="1">
          <mxGeometry x="1005" y="2655" width="90" height="50" as="geometry" />
        </mxCell>
        <mxCell id="NRTdCzGTAj_v-6VQH-Ef-177" value="" style="endArrow=none;html=1;rounded=0;entryX=0.944;entryY=0.5;entryDx=0;entryDy=0;exitX=0;exitY=0.5;exitDx=0;exitDy=0;entryPerimeter=0;" edge="1" parent="1" source="NRTdCzGTAj_v-6VQH-Ef-179" target="NRTdCzGTAj_v-6VQH-Ef-175">
          <mxGeometry width="50" height="50" relative="1" as="geometry">
            <mxPoint x="1345" y="2679.29" as="sourcePoint" />
            <mxPoint x="1120" y="2679.29" as="targetPoint" />
            <Array as="points" />
          </mxGeometry>
        </mxCell>
        <mxCell id="NRTdCzGTAj_v-6VQH-Ef-179" value="&lt;span style=&quot;font-size: 36px;&quot;&gt;Tripulacao&lt;/span&gt;" style="rounded=0;whiteSpace=wrap;html=1;" vertex="1" parent="1">
          <mxGeometry x="1320" y="2650" width="220" height="60" as="geometry" />
        </mxCell>
        <mxCell id="NRTdCzGTAj_v-6VQH-Ef-180" value="&lt;font style=&quot;font-size: 25px;&quot;&gt;tecnico_manu&lt;/font&gt;" style="ellipse;whiteSpace=wrap;html=1;" vertex="1" parent="1">
          <mxGeometry x="1473.75" y="2930" width="190" height="90" as="geometry" />
        </mxCell>
        <mxCell id="NRTdCzGTAj_v-6VQH-Ef-181" value="&lt;font style=&quot;font-size: 36px;&quot;&gt;&lt;u&gt;id&lt;/u&gt;&lt;/font&gt;" style="ellipse;whiteSpace=wrap;html=1;" vertex="1" parent="1">
          <mxGeometry x="1245" y="2945" width="170" height="80" as="geometry" />
        </mxCell>
        <mxCell id="NRTdCzGTAj_v-6VQH-Ef-182" value="&lt;font style=&quot;font-size: 36px;&quot;&gt;navigator&lt;/font&gt;" style="ellipse;whiteSpace=wrap;html=1;" vertex="1" parent="1">
          <mxGeometry x="1520" y="2833" width="190" height="90" as="geometry" />
        </mxCell>
        <mxCell id="NRTdCzGTAj_v-6VQH-Ef-183" value="&lt;font style=&quot;font-size: 30px;&quot;&gt;comissarios&lt;/font&gt;" style="ellipse;whiteSpace=wrap;html=1;" vertex="1" parent="1">
          <mxGeometry x="1210" y="2810" width="180" height="100" as="geometry" />
        </mxCell>
        <mxCell id="NRTdCzGTAj_v-6VQH-Ef-184" value="&lt;font style=&quot;font-size: 36px;&quot;&gt;copiloto&lt;/font&gt;" style="ellipse;whiteSpace=wrap;html=1;" vertex="1" parent="1">
          <mxGeometry x="1190" y="2730" width="170" height="80" as="geometry" />
        </mxCell>
        <mxCell id="NRTdCzGTAj_v-6VQH-Ef-185" value="&lt;font style=&quot;font-size: 36px;&quot;&gt;descricao&lt;/font&gt;" style="ellipse;whiteSpace=wrap;html=1;" vertex="1" parent="1">
          <mxGeometry x="1515" y="2725" width="190" height="90" as="geometry" />
        </mxCell>
        <mxCell id="NRTdCzGTAj_v-6VQH-Ef-186" value="&lt;font style=&quot;font-size: 25px;&quot;&gt;engenheiro_voo&lt;/font&gt;" style="ellipse;whiteSpace=wrap;html=1;" vertex="1" parent="1">
          <mxGeometry x="1321.25" y="3025" width="217.5" height="105" as="geometry" />
        </mxCell>
        <mxCell id="NRTdCzGTAj_v-6VQH-Ef-187" value="" style="endArrow=none;html=1;rounded=0;entryX=0.5;entryY=1;entryDx=0;entryDy=0;exitX=0;exitY=0;exitDx=0;exitDy=0;" edge="1" parent="1" source="NRTdCzGTAj_v-6VQH-Ef-185" target="NRTdCzGTAj_v-6VQH-Ef-179">
          <mxGeometry width="50" height="50" relative="1" as="geometry">
            <mxPoint x="1312.5" y="2967.5" as="sourcePoint" />
            <mxPoint x="1237.5" y="2805.5" as="targetPoint" />
            <Array as="points" />
          </mxGeometry>
        </mxCell>
        <mxCell id="NRTdCzGTAj_v-6VQH-Ef-188" value="" style="endArrow=none;html=1;rounded=0;entryX=0.5;entryY=1;entryDx=0;entryDy=0;exitX=1;exitY=0;exitDx=0;exitDy=0;" edge="1" parent="1" source="NRTdCzGTAj_v-6VQH-Ef-183" target="NRTdCzGTAj_v-6VQH-Ef-179">
          <mxGeometry width="50" height="50" relative="1" as="geometry">
            <mxPoint x="1322.5" y="2977.5" as="sourcePoint" />
            <mxPoint x="1247.5" y="2815.5" as="targetPoint" />
            <Array as="points" />
          </mxGeometry>
        </mxCell>
        <mxCell id="NRTdCzGTAj_v-6VQH-Ef-189" value="" style="endArrow=none;html=1;rounded=0;exitX=0;exitY=0;exitDx=0;exitDy=0;entryX=0.5;entryY=1;entryDx=0;entryDy=0;" edge="1" parent="1" source="NRTdCzGTAj_v-6VQH-Ef-182" target="NRTdCzGTAj_v-6VQH-Ef-179">
          <mxGeometry width="50" height="50" relative="1" as="geometry">
            <mxPoint x="1332.5" y="2987.5" as="sourcePoint" />
            <mxPoint x="1360" y="2897.5" as="targetPoint" />
            <Array as="points" />
          </mxGeometry>
        </mxCell>
        <mxCell id="NRTdCzGTAj_v-6VQH-Ef-190" value="" style="endArrow=none;html=1;rounded=0;entryX=1;entryY=0;entryDx=0;entryDy=0;exitX=0.5;exitY=1;exitDx=0;exitDy=0;" edge="1" parent="1" source="NRTdCzGTAj_v-6VQH-Ef-179" target="NRTdCzGTAj_v-6VQH-Ef-181">
          <mxGeometry width="50" height="50" relative="1" as="geometry">
            <mxPoint x="1342.5" y="2997.5" as="sourcePoint" />
            <mxPoint x="1267.5" y="2835.5" as="targetPoint" />
            <Array as="points" />
          </mxGeometry>
        </mxCell>
        <mxCell id="NRTdCzGTAj_v-6VQH-Ef-191" value="" style="endArrow=none;html=1;rounded=0;entryX=0;entryY=0;entryDx=0;entryDy=0;exitX=0.5;exitY=1;exitDx=0;exitDy=0;" edge="1" parent="1" source="NRTdCzGTAj_v-6VQH-Ef-179" target="NRTdCzGTAj_v-6VQH-Ef-180">
          <mxGeometry width="50" height="50" relative="1" as="geometry">
            <mxPoint x="1352.5" y="3007.5" as="sourcePoint" />
            <mxPoint x="1277.5" y="2845.5" as="targetPoint" />
            <Array as="points" />
          </mxGeometry>
        </mxCell>
        <mxCell id="NRTdCzGTAj_v-6VQH-Ef-192" value="" style="endArrow=none;html=1;rounded=0;entryX=0.5;entryY=1;entryDx=0;entryDy=0;exitX=0.5;exitY=0;exitDx=0;exitDy=0;" edge="1" parent="1" source="NRTdCzGTAj_v-6VQH-Ef-186" target="NRTdCzGTAj_v-6VQH-Ef-179">
          <mxGeometry width="50" height="50" relative="1" as="geometry">
            <mxPoint x="1362.5" y="3017.5" as="sourcePoint" />
            <mxPoint x="1287.5" y="2855.5" as="targetPoint" />
            <Array as="points" />
          </mxGeometry>
        </mxCell>
        <mxCell id="NRTdCzGTAj_v-6VQH-Ef-193" value="" style="endArrow=none;html=1;rounded=0;entryX=0.5;entryY=1;entryDx=0;entryDy=0;exitX=1;exitY=0;exitDx=0;exitDy=0;" edge="1" parent="1" source="NRTdCzGTAj_v-6VQH-Ef-184" target="NRTdCzGTAj_v-6VQH-Ef-179">
          <mxGeometry width="50" height="50" relative="1" as="geometry">
            <mxPoint x="1575" y="2899.5" as="sourcePoint" />
            <mxPoint x="1665" y="2747.5" as="targetPoint" />
            <Array as="points" />
          </mxGeometry>
        </mxCell>
        <mxCell id="NRTdCzGTAj_v-6VQH-Ef-194" value="&lt;span style=&quot;font-size: 36px;&quot;&gt;Passageiro&lt;/span&gt;" style="rounded=0;whiteSpace=wrap;html=1;" vertex="1" parent="1">
          <mxGeometry x="155" y="3240" width="220" height="60" as="geometry" />
        </mxCell>
        <mxCell id="NRTdCzGTAj_v-6VQH-Ef-195" value="&lt;font style=&quot;font-size: 25px;&quot;&gt;nascionalidade&lt;/font&gt;" style="ellipse;whiteSpace=wrap;html=1;" vertex="1" parent="1">
          <mxGeometry x="422.5" y="3490" width="190" height="90" as="geometry" />
        </mxCell>
        <mxCell id="NRTdCzGTAj_v-6VQH-Ef-196" value="&lt;font style=&quot;font-size: 36px;&quot;&gt;&lt;u&gt;id&lt;/u&gt;&lt;/font&gt;" style="ellipse;whiteSpace=wrap;html=1;" vertex="1" parent="1">
          <mxGeometry x="-40" y="3507" width="170" height="80" as="geometry" />
        </mxCell>
        <mxCell id="NRTdCzGTAj_v-6VQH-Ef-197" value="&lt;font style=&quot;font-size: 36px;&quot;&gt;email&lt;/font&gt;" style="ellipse;whiteSpace=wrap;html=1;" vertex="1" parent="1">
          <mxGeometry x="445" y="3390" width="190" height="90" as="geometry" />
        </mxCell>
        <mxCell id="NRTdCzGTAj_v-6VQH-Ef-198" value="&lt;font style=&quot;font-size: 36px;&quot;&gt;cpf&lt;/font&gt;" style="ellipse;whiteSpace=wrap;html=1;" vertex="1" parent="1">
          <mxGeometry x="-60" y="3410" width="170" height="80" as="geometry" />
        </mxCell>
        <mxCell id="NRTdCzGTAj_v-6VQH-Ef-199" value="&lt;font style=&quot;font-size: 36px;&quot;&gt;nome&lt;/font&gt;" style="ellipse;whiteSpace=wrap;html=1;" vertex="1" parent="1">
          <mxGeometry x="-70" y="3320" width="170" height="80" as="geometry" />
        </mxCell>
        <mxCell id="NRTdCzGTAj_v-6VQH-Ef-200" value="&lt;font style=&quot;font-size: 36px;&quot;&gt;senha&lt;/font&gt;" style="ellipse;whiteSpace=wrap;html=1;" vertex="1" parent="1">
          <mxGeometry x="450" y="3300" width="190" height="90" as="geometry" />
        </mxCell>
        <mxCell id="NRTdCzGTAj_v-6VQH-Ef-201" value="&lt;font style=&quot;font-size: 25px;&quot;&gt;passaporte&lt;/font&gt;" style="ellipse;whiteSpace=wrap;html=1;" vertex="1" parent="1">
          <mxGeometry x="60" y="3585" width="188.75" height="85" as="geometry" />
        </mxCell>
        <mxCell id="NRTdCzGTAj_v-6VQH-Ef-202" value="" style="endArrow=none;html=1;rounded=0;entryX=0.5;entryY=1;entryDx=0;entryDy=0;exitX=0;exitY=0;exitDx=0;exitDy=0;" edge="1" parent="1" source="NRTdCzGTAj_v-6VQH-Ef-200" target="NRTdCzGTAj_v-6VQH-Ef-194">
          <mxGeometry width="50" height="50" relative="1" as="geometry">
            <mxPoint x="182.5" y="3307.5" as="sourcePoint" />
            <mxPoint x="107.5" y="3145.5" as="targetPoint" />
            <Array as="points" />
          </mxGeometry>
        </mxCell>
        <mxCell id="NRTdCzGTAj_v-6VQH-Ef-203" value="" style="endArrow=none;html=1;rounded=0;entryX=0.5;entryY=1;entryDx=0;entryDy=0;exitX=1;exitY=0;exitDx=0;exitDy=0;" edge="1" parent="1" source="NRTdCzGTAj_v-6VQH-Ef-198" target="NRTdCzGTAj_v-6VQH-Ef-194">
          <mxGeometry width="50" height="50" relative="1" as="geometry">
            <mxPoint x="192.5" y="3317.5" as="sourcePoint" />
            <mxPoint x="117.5" y="3155.5" as="targetPoint" />
            <Array as="points" />
          </mxGeometry>
        </mxCell>
        <mxCell id="NRTdCzGTAj_v-6VQH-Ef-204" value="" style="endArrow=none;html=1;rounded=0;exitX=0;exitY=0;exitDx=0;exitDy=0;entryX=0.5;entryY=1;entryDx=0;entryDy=0;" edge="1" parent="1" source="NRTdCzGTAj_v-6VQH-Ef-197" target="NRTdCzGTAj_v-6VQH-Ef-194">
          <mxGeometry width="50" height="50" relative="1" as="geometry">
            <mxPoint x="202.5" y="3327.5" as="sourcePoint" />
            <mxPoint x="230" y="3237.5" as="targetPoint" />
            <Array as="points" />
          </mxGeometry>
        </mxCell>
        <mxCell id="NRTdCzGTAj_v-6VQH-Ef-205" value="" style="endArrow=none;html=1;rounded=0;entryX=1;entryY=0;entryDx=0;entryDy=0;exitX=0.5;exitY=1;exitDx=0;exitDy=0;" edge="1" parent="1" source="NRTdCzGTAj_v-6VQH-Ef-194" target="NRTdCzGTAj_v-6VQH-Ef-196">
          <mxGeometry width="50" height="50" relative="1" as="geometry">
            <mxPoint x="212.5" y="3337.5" as="sourcePoint" />
            <mxPoint x="137.5" y="3175.5" as="targetPoint" />
            <Array as="points" />
          </mxGeometry>
        </mxCell>
        <mxCell id="NRTdCzGTAj_v-6VQH-Ef-206" value="" style="endArrow=none;html=1;rounded=0;entryX=0;entryY=0;entryDx=0;entryDy=0;exitX=0.5;exitY=1;exitDx=0;exitDy=0;" edge="1" parent="1" source="NRTdCzGTAj_v-6VQH-Ef-194" target="NRTdCzGTAj_v-6VQH-Ef-195">
          <mxGeometry width="50" height="50" relative="1" as="geometry">
            <mxPoint x="222.5" y="3347.5" as="sourcePoint" />
            <mxPoint x="147.5" y="3185.5" as="targetPoint" />
            <Array as="points" />
          </mxGeometry>
        </mxCell>
        <mxCell id="NRTdCzGTAj_v-6VQH-Ef-207" value="" style="endArrow=none;html=1;rounded=0;entryX=0.5;entryY=1;entryDx=0;entryDy=0;exitX=0.5;exitY=0;exitDx=0;exitDy=0;" edge="1" parent="1" source="NRTdCzGTAj_v-6VQH-Ef-201" target="NRTdCzGTAj_v-6VQH-Ef-194">
          <mxGeometry width="50" height="50" relative="1" as="geometry">
            <mxPoint x="232.5" y="3357.5" as="sourcePoint" />
            <mxPoint x="157.5" y="3195.5" as="targetPoint" />
            <Array as="points" />
          </mxGeometry>
        </mxCell>
        <mxCell id="NRTdCzGTAj_v-6VQH-Ef-208" value="" style="endArrow=none;html=1;rounded=0;entryX=0.5;entryY=1;entryDx=0;entryDy=0;exitX=1;exitY=0;exitDx=0;exitDy=0;" edge="1" parent="1" source="NRTdCzGTAj_v-6VQH-Ef-199" target="NRTdCzGTAj_v-6VQH-Ef-194">
          <mxGeometry width="50" height="50" relative="1" as="geometry">
            <mxPoint x="445" y="3239.5" as="sourcePoint" />
            <mxPoint x="535" y="3087.5" as="targetPoint" />
            <Array as="points" />
          </mxGeometry>
        </mxCell>
        <mxCell id="NRTdCzGTAj_v-6VQH-Ef-209" value="&lt;font style=&quot;font-size: 25px;&quot;&gt;data_nascimento&lt;/font&gt;" style="ellipse;whiteSpace=wrap;html=1;" vertex="1" parent="1">
          <mxGeometry x="310" y="3580" width="220" height="90" as="geometry" />
        </mxCell>
        <mxCell id="NRTdCzGTAj_v-6VQH-Ef-210" value="" style="endArrow=none;html=1;rounded=0;exitX=0.5;exitY=0;exitDx=0;exitDy=0;entryX=0.5;entryY=1;entryDx=0;entryDy=0;" edge="1" parent="1" source="NRTdCzGTAj_v-6VQH-Ef-209" target="NRTdCzGTAj_v-6VQH-Ef-194">
          <mxGeometry width="50" height="50" relative="1" as="geometry">
            <mxPoint x="156" y="3340" as="sourcePoint" />
            <mxPoint x="310" y="3160" as="targetPoint" />
            <Array as="points" />
          </mxGeometry>
        </mxCell>
        <mxCell id="NRTdCzGTAj_v-6VQH-Ef-211" value="&lt;font style=&quot;font-size: 30px;&quot;&gt;(1,1)&lt;/font&gt;" style="text;html=1;align=center;verticalAlign=middle;resizable=0;points=[];autosize=1;strokeColor=none;fillColor=none;" vertex="1" parent="1">
          <mxGeometry x="450" y="3245" width="90" height="50" as="geometry" />
        </mxCell>
        <mxCell id="NRTdCzGTAj_v-6VQH-Ef-212" value="" style="endArrow=none;html=1;rounded=0;entryX=1;entryY=0.5;entryDx=0;entryDy=0;exitX=0.003;exitY=0.503;exitDx=0;exitDy=0;exitPerimeter=0;" edge="1" parent="1" source="NRTdCzGTAj_v-6VQH-Ef-211" target="NRTdCzGTAj_v-6VQH-Ef-194">
          <mxGeometry width="50" height="50" relative="1" as="geometry">
            <mxPoint x="606.25" y="3020" as="sourcePoint" />
            <mxPoint x="431.75" y="3020" as="targetPoint" />
            <Array as="points" />
          </mxGeometry>
        </mxCell>
        <mxCell id="NRTdCzGTAj_v-6VQH-Ef-213" value="" style="endArrow=none;html=1;rounded=0;exitX=0;exitY=0.5;exitDx=0;exitDy=0;entryX=1;entryY=0.5;entryDx=0;entryDy=0;entryPerimeter=0;" edge="1" parent="1" target="NRTdCzGTAj_v-6VQH-Ef-211" source="NRTdCzGTAj_v-6VQH-Ef-217">
          <mxGeometry width="50" height="50" relative="1" as="geometry">
            <mxPoint x="868.75" y="3015" as="sourcePoint" />
            <mxPoint x="711.25" y="3015" as="targetPoint" />
            <Array as="points" />
          </mxGeometry>
        </mxCell>
        <mxCell id="NRTdCzGTAj_v-6VQH-Ef-214" value="" style="endArrow=none;html=1;rounded=0;entryX=1;entryY=0.5;entryDx=0;entryDy=0;exitX=0;exitY=0.5;exitDx=0;exitDy=0;exitPerimeter=0;" edge="1" parent="1" source="NRTdCzGTAj_v-6VQH-Ef-215" target="NRTdCzGTAj_v-6VQH-Ef-217">
          <mxGeometry width="50" height="50" relative="1" as="geometry">
            <mxPoint x="1173.75" y="3015" as="sourcePoint" />
            <mxPoint x="1018.75" y="3015" as="targetPoint" />
            <Array as="points" />
          </mxGeometry>
        </mxCell>
        <mxCell id="NRTdCzGTAj_v-6VQH-Ef-215" value="&lt;font style=&quot;font-size: 30px;&quot;&gt;(N,1)&lt;/font&gt;" style="text;html=1;align=center;verticalAlign=middle;resizable=0;points=[];autosize=1;strokeColor=none;fillColor=none;" vertex="1" parent="1">
          <mxGeometry x="1060" y="3245" width="90" height="50" as="geometry" />
        </mxCell>
        <mxCell id="NRTdCzGTAj_v-6VQH-Ef-216" value="" style="endArrow=none;html=1;rounded=0;entryX=0.944;entryY=0.5;entryDx=0;entryDy=0;entryPerimeter=0;exitX=0;exitY=0.5;exitDx=0;exitDy=0;" edge="1" parent="1" target="NRTdCzGTAj_v-6VQH-Ef-215" source="NRTdCzGTAj_v-6VQH-Ef-234">
          <mxGeometry width="50" height="50" relative="1" as="geometry">
            <mxPoint x="1400" y="3160" as="sourcePoint" />
            <mxPoint x="1233.75" y="3014.29" as="targetPoint" />
            <Array as="points" />
          </mxGeometry>
        </mxCell>
        <mxCell id="NRTdCzGTAj_v-6VQH-Ef-217" value="&lt;font style=&quot;font-size: 24px;&quot;&gt;Compra&lt;/font&gt;" style="rhombus;whiteSpace=wrap;html=1;" vertex="1" parent="1">
          <mxGeometry x="745" y="3210" width="150" height="120" as="geometry" />
        </mxCell>
        <mxCell id="NRTdCzGTAj_v-6VQH-Ef-234" value="&lt;font style=&quot;font-size: 36px;&quot;&gt;Passagem&lt;/font&gt;" style="rounded=0;whiteSpace=wrap;html=1;" vertex="1" parent="1">
          <mxGeometry x="1328.75" y="3240" width="220" height="60" as="geometry" />
        </mxCell>
        <mxCell id="NRTdCzGTAj_v-6VQH-Ef-235" value="&lt;span style=&quot;font-size: 30px;&quot;&gt;poltrona&lt;/span&gt;" style="ellipse;whiteSpace=wrap;html=1;" vertex="1" parent="1">
          <mxGeometry x="1158.75" y="3330" width="170" height="80" as="geometry" />
        </mxCell>
        <mxCell id="NRTdCzGTAj_v-6VQH-Ef-236" value="&lt;font style=&quot;font-size: 36px;&quot;&gt;&lt;u&gt;Id&lt;/u&gt;&lt;/font&gt;" style="ellipse;whiteSpace=wrap;html=1;" vertex="1" parent="1">
          <mxGeometry x="1353.75" y="3530" width="170" height="80" as="geometry" />
        </mxCell>
        <mxCell id="NRTdCzGTAj_v-6VQH-Ef-237" value="&lt;font style=&quot;font-size: 25px;&quot;&gt;valor&lt;/font&gt;" style="ellipse;whiteSpace=wrap;html=1;" vertex="1" parent="1">
          <mxGeometry x="1485" y="3410" width="200" height="80" as="geometry" />
        </mxCell>
        <mxCell id="NRTdCzGTAj_v-6VQH-Ef-238" value="&lt;font style=&quot;font-size: 30px;&quot;&gt;descricao&lt;/font&gt;" style="ellipse;whiteSpace=wrap;html=1;" vertex="1" parent="1">
          <mxGeometry x="1535" y="3320" width="170" height="80" as="geometry" />
        </mxCell>
        <mxCell id="NRTdCzGTAj_v-6VQH-Ef-239" value="&lt;font style=&quot;font-size: 30px;&quot;&gt;tipo&lt;/font&gt;" style="ellipse;whiteSpace=wrap;html=1;" vertex="1" parent="1">
          <mxGeometry x="1165" y="3420" width="190" height="80" as="geometry" />
        </mxCell>
        <mxCell id="NRTdCzGTAj_v-6VQH-Ef-240" value="" style="endArrow=none;html=1;rounded=0;exitX=0.5;exitY=1;exitDx=0;exitDy=0;entryX=0;entryY=0;entryDx=0;entryDy=0;" edge="1" parent="1" source="NRTdCzGTAj_v-6VQH-Ef-234" target="NRTdCzGTAj_v-6VQH-Ef-237">
          <mxGeometry width="50" height="50" relative="1" as="geometry">
            <mxPoint x="1641" y="2630" as="sourcePoint" />
            <mxPoint x="1500" y="2710" as="targetPoint" />
          </mxGeometry>
        </mxCell>
        <mxCell id="NRTdCzGTAj_v-6VQH-Ef-241" value="" style="endArrow=none;html=1;rounded=0;exitX=0.5;exitY=1;exitDx=0;exitDy=0;entryX=1;entryY=0;entryDx=0;entryDy=0;" edge="1" parent="1" source="NRTdCzGTAj_v-6VQH-Ef-234" target="NRTdCzGTAj_v-6VQH-Ef-235">
          <mxGeometry width="50" height="50" relative="1" as="geometry">
            <mxPoint x="1651" y="2640" as="sourcePoint" />
            <mxPoint x="1390" y="2710" as="targetPoint" />
          </mxGeometry>
        </mxCell>
        <mxCell id="NRTdCzGTAj_v-6VQH-Ef-242" value="" style="endArrow=none;html=1;rounded=0;exitX=0.5;exitY=1;exitDx=0;exitDy=0;entryX=1;entryY=0;entryDx=0;entryDy=0;" edge="1" parent="1" source="NRTdCzGTAj_v-6VQH-Ef-234" target="NRTdCzGTAj_v-6VQH-Ef-239">
          <mxGeometry width="50" height="50" relative="1" as="geometry">
            <mxPoint x="1661" y="2650" as="sourcePoint" />
            <mxPoint x="1440" y="2740" as="targetPoint" />
          </mxGeometry>
        </mxCell>
        <mxCell id="NRTdCzGTAj_v-6VQH-Ef-243" value="" style="endArrow=none;html=1;rounded=0;exitX=0.5;exitY=1;exitDx=0;exitDy=0;entryX=0;entryY=0;entryDx=0;entryDy=0;" edge="1" parent="1" source="NRTdCzGTAj_v-6VQH-Ef-234" target="NRTdCzGTAj_v-6VQH-Ef-238">
          <mxGeometry width="50" height="50" relative="1" as="geometry">
            <mxPoint x="1600" y="2630" as="sourcePoint" />
            <mxPoint x="1550" y="2680" as="targetPoint" />
          </mxGeometry>
        </mxCell>
        <mxCell id="NRTdCzGTAj_v-6VQH-Ef-244" value="" style="endArrow=none;html=1;rounded=0;exitX=0.5;exitY=1;exitDx=0;exitDy=0;entryX=0.5;entryY=0;entryDx=0;entryDy=0;" edge="1" parent="1" source="NRTdCzGTAj_v-6VQH-Ef-234" target="NRTdCzGTAj_v-6VQH-Ef-236">
          <mxGeometry width="50" height="50" relative="1" as="geometry">
            <mxPoint x="1681" y="2670" as="sourcePoint" />
            <mxPoint x="1460" y="2760" as="targetPoint" />
            <Array as="points" />
          </mxGeometry>
        </mxCell>
        <mxCell id="NRTdCzGTAj_v-6VQH-Ef-247" value="&lt;span style=&quot;font-size: 36px;&quot;&gt;Passageiro&lt;/span&gt;" style="rounded=0;whiteSpace=wrap;html=1;" vertex="1" parent="1">
          <mxGeometry x="155" y="3780" width="220" height="60" as="geometry" />
        </mxCell>
        <mxCell id="NRTdCzGTAj_v-6VQH-Ef-248" value="&lt;font style=&quot;font-size: 25px;&quot;&gt;nascionalidade&lt;/font&gt;" style="ellipse;whiteSpace=wrap;html=1;" vertex="1" parent="1">
          <mxGeometry x="422.5" y="4030" width="190" height="90" as="geometry" />
        </mxCell>
        <mxCell id="NRTdCzGTAj_v-6VQH-Ef-249" value="&lt;font style=&quot;font-size: 36px;&quot;&gt;&lt;u&gt;id&lt;/u&gt;&lt;/font&gt;" style="ellipse;whiteSpace=wrap;html=1;" vertex="1" parent="1">
          <mxGeometry x="-40" y="4047" width="170" height="80" as="geometry" />
        </mxCell>
        <mxCell id="NRTdCzGTAj_v-6VQH-Ef-250" value="&lt;font style=&quot;font-size: 36px;&quot;&gt;email&lt;/font&gt;" style="ellipse;whiteSpace=wrap;html=1;" vertex="1" parent="1">
          <mxGeometry x="445" y="3930" width="190" height="90" as="geometry" />
        </mxCell>
        <mxCell id="NRTdCzGTAj_v-6VQH-Ef-251" value="&lt;font style=&quot;font-size: 36px;&quot;&gt;cpf&lt;/font&gt;" style="ellipse;whiteSpace=wrap;html=1;" vertex="1" parent="1">
          <mxGeometry x="-60" y="3950" width="170" height="80" as="geometry" />
        </mxCell>
        <mxCell id="NRTdCzGTAj_v-6VQH-Ef-252" value="&lt;font style=&quot;font-size: 36px;&quot;&gt;nome&lt;/font&gt;" style="ellipse;whiteSpace=wrap;html=1;" vertex="1" parent="1">
          <mxGeometry x="-70" y="3860" width="170" height="80" as="geometry" />
        </mxCell>
        <mxCell id="NRTdCzGTAj_v-6VQH-Ef-253" value="&lt;font style=&quot;font-size: 36px;&quot;&gt;senha&lt;/font&gt;" style="ellipse;whiteSpace=wrap;html=1;" vertex="1" parent="1">
          <mxGeometry x="450" y="3840" width="190" height="90" as="geometry" />
        </mxCell>
        <mxCell id="NRTdCzGTAj_v-6VQH-Ef-254" value="&lt;font style=&quot;font-size: 25px;&quot;&gt;passaporte&lt;/font&gt;" style="ellipse;whiteSpace=wrap;html=1;" vertex="1" parent="1">
          <mxGeometry x="60" y="4125" width="188.75" height="85" as="geometry" />
        </mxCell>
        <mxCell id="NRTdCzGTAj_v-6VQH-Ef-255" value="" style="endArrow=none;html=1;rounded=0;entryX=0.5;entryY=1;entryDx=0;entryDy=0;exitX=0;exitY=0;exitDx=0;exitDy=0;" edge="1" parent="1" source="NRTdCzGTAj_v-6VQH-Ef-253" target="NRTdCzGTAj_v-6VQH-Ef-247">
          <mxGeometry width="50" height="50" relative="1" as="geometry">
            <mxPoint x="182.5" y="3847.5" as="sourcePoint" />
            <mxPoint x="107.5" y="3685.5" as="targetPoint" />
            <Array as="points" />
          </mxGeometry>
        </mxCell>
        <mxCell id="NRTdCzGTAj_v-6VQH-Ef-256" value="" style="endArrow=none;html=1;rounded=0;entryX=0.5;entryY=1;entryDx=0;entryDy=0;exitX=1;exitY=0;exitDx=0;exitDy=0;" edge="1" parent="1" source="NRTdCzGTAj_v-6VQH-Ef-251" target="NRTdCzGTAj_v-6VQH-Ef-247">
          <mxGeometry width="50" height="50" relative="1" as="geometry">
            <mxPoint x="192.5" y="3857.5" as="sourcePoint" />
            <mxPoint x="117.5" y="3695.5" as="targetPoint" />
            <Array as="points" />
          </mxGeometry>
        </mxCell>
        <mxCell id="NRTdCzGTAj_v-6VQH-Ef-257" value="" style="endArrow=none;html=1;rounded=0;exitX=0;exitY=0;exitDx=0;exitDy=0;entryX=0.5;entryY=1;entryDx=0;entryDy=0;" edge="1" parent="1" source="NRTdCzGTAj_v-6VQH-Ef-250" target="NRTdCzGTAj_v-6VQH-Ef-247">
          <mxGeometry width="50" height="50" relative="1" as="geometry">
            <mxPoint x="202.5" y="3867.5" as="sourcePoint" />
            <mxPoint x="230" y="3777.5" as="targetPoint" />
            <Array as="points" />
          </mxGeometry>
        </mxCell>
        <mxCell id="NRTdCzGTAj_v-6VQH-Ef-258" value="" style="endArrow=none;html=1;rounded=0;entryX=1;entryY=0;entryDx=0;entryDy=0;exitX=0.5;exitY=1;exitDx=0;exitDy=0;" edge="1" parent="1" source="NRTdCzGTAj_v-6VQH-Ef-247" target="NRTdCzGTAj_v-6VQH-Ef-249">
          <mxGeometry width="50" height="50" relative="1" as="geometry">
            <mxPoint x="212.5" y="3877.5" as="sourcePoint" />
            <mxPoint x="137.5" y="3715.5" as="targetPoint" />
            <Array as="points" />
          </mxGeometry>
        </mxCell>
        <mxCell id="NRTdCzGTAj_v-6VQH-Ef-259" value="" style="endArrow=none;html=1;rounded=0;entryX=0;entryY=0;entryDx=0;entryDy=0;exitX=0.5;exitY=1;exitDx=0;exitDy=0;" edge="1" parent="1" source="NRTdCzGTAj_v-6VQH-Ef-247" target="NRTdCzGTAj_v-6VQH-Ef-248">
          <mxGeometry width="50" height="50" relative="1" as="geometry">
            <mxPoint x="222.5" y="3887.5" as="sourcePoint" />
            <mxPoint x="147.5" y="3725.5" as="targetPoint" />
            <Array as="points" />
          </mxGeometry>
        </mxCell>
        <mxCell id="NRTdCzGTAj_v-6VQH-Ef-260" value="" style="endArrow=none;html=1;rounded=0;entryX=0.5;entryY=1;entryDx=0;entryDy=0;exitX=0.5;exitY=0;exitDx=0;exitDy=0;" edge="1" parent="1" source="NRTdCzGTAj_v-6VQH-Ef-254" target="NRTdCzGTAj_v-6VQH-Ef-247">
          <mxGeometry width="50" height="50" relative="1" as="geometry">
            <mxPoint x="232.5" y="3897.5" as="sourcePoint" />
            <mxPoint x="157.5" y="3735.5" as="targetPoint" />
            <Array as="points" />
          </mxGeometry>
        </mxCell>
        <mxCell id="NRTdCzGTAj_v-6VQH-Ef-261" value="" style="endArrow=none;html=1;rounded=0;entryX=0.5;entryY=1;entryDx=0;entryDy=0;exitX=1;exitY=0;exitDx=0;exitDy=0;" edge="1" parent="1" source="NRTdCzGTAj_v-6VQH-Ef-252" target="NRTdCzGTAj_v-6VQH-Ef-247">
          <mxGeometry width="50" height="50" relative="1" as="geometry">
            <mxPoint x="445" y="3779.5" as="sourcePoint" />
            <mxPoint x="535" y="3627.5" as="targetPoint" />
            <Array as="points" />
          </mxGeometry>
        </mxCell>
        <mxCell id="NRTdCzGTAj_v-6VQH-Ef-262" value="&lt;font style=&quot;font-size: 25px;&quot;&gt;data_nascimento&lt;/font&gt;" style="ellipse;whiteSpace=wrap;html=1;" vertex="1" parent="1">
          <mxGeometry x="310" y="4120" width="220" height="90" as="geometry" />
        </mxCell>
        <mxCell id="NRTdCzGTAj_v-6VQH-Ef-263" value="" style="endArrow=none;html=1;rounded=0;exitX=0.5;exitY=0;exitDx=0;exitDy=0;entryX=0.5;entryY=1;entryDx=0;entryDy=0;" edge="1" parent="1" source="NRTdCzGTAj_v-6VQH-Ef-262" target="NRTdCzGTAj_v-6VQH-Ef-247">
          <mxGeometry width="50" height="50" relative="1" as="geometry">
            <mxPoint x="156" y="3880" as="sourcePoint" />
            <mxPoint x="310" y="3700" as="targetPoint" />
            <Array as="points" />
          </mxGeometry>
        </mxCell>
        <mxCell id="NRTdCzGTAj_v-6VQH-Ef-264" value="&lt;font style=&quot;font-size: 30px;&quot;&gt;(1,1)&lt;/font&gt;" style="text;html=1;align=center;verticalAlign=middle;resizable=0;points=[];autosize=1;strokeColor=none;fillColor=none;" vertex="1" parent="1">
          <mxGeometry x="450" y="3785" width="90" height="50" as="geometry" />
        </mxCell>
        <mxCell id="NRTdCzGTAj_v-6VQH-Ef-265" value="" style="endArrow=none;html=1;rounded=0;entryX=1;entryY=0.5;entryDx=0;entryDy=0;exitX=0.003;exitY=0.503;exitDx=0;exitDy=0;exitPerimeter=0;" edge="1" parent="1" source="NRTdCzGTAj_v-6VQH-Ef-264" target="NRTdCzGTAj_v-6VQH-Ef-247">
          <mxGeometry width="50" height="50" relative="1" as="geometry">
            <mxPoint x="606.25" y="3560" as="sourcePoint" />
            <mxPoint x="431.75" y="3560" as="targetPoint" />
            <Array as="points" />
          </mxGeometry>
        </mxCell>
        <mxCell id="NRTdCzGTAj_v-6VQH-Ef-266" value="" style="endArrow=none;html=1;rounded=0;exitX=0;exitY=0.5;exitDx=0;exitDy=0;entryX=1;entryY=0.5;entryDx=0;entryDy=0;entryPerimeter=0;" edge="1" parent="1" source="NRTdCzGTAj_v-6VQH-Ef-271" target="NRTdCzGTAj_v-6VQH-Ef-264">
          <mxGeometry width="50" height="50" relative="1" as="geometry">
            <mxPoint x="745" y="3810" as="sourcePoint" />
            <mxPoint x="711.25" y="3555" as="targetPoint" />
            <Array as="points" />
          </mxGeometry>
        </mxCell>
        <mxCell id="NRTdCzGTAj_v-6VQH-Ef-268" value="" style="endArrow=none;html=1;rounded=0;entryX=1;entryY=0.5;entryDx=0;entryDy=0;exitX=0;exitY=0.5;exitDx=0;exitDy=0;exitPerimeter=0;" edge="1" parent="1" source="NRTdCzGTAj_v-6VQH-Ef-269" target="NRTdCzGTAj_v-6VQH-Ef-271">
          <mxGeometry width="50" height="50" relative="1" as="geometry">
            <mxPoint x="1166.75" y="3550" as="sourcePoint" />
            <mxPoint x="888" y="3805" as="targetPoint" />
            <Array as="points" />
          </mxGeometry>
        </mxCell>
        <mxCell id="NRTdCzGTAj_v-6VQH-Ef-269" value="&lt;font style=&quot;font-size: 30px;&quot;&gt;(N,1)&lt;/font&gt;" style="text;html=1;align=center;verticalAlign=middle;resizable=0;points=[];autosize=1;strokeColor=none;fillColor=none;" vertex="1" parent="1">
          <mxGeometry x="1060" y="3785" width="90" height="50" as="geometry" />
        </mxCell>
        <mxCell id="NRTdCzGTAj_v-6VQH-Ef-270" value="" style="endArrow=none;html=1;rounded=0;entryX=0.944;entryY=0.5;entryDx=0;entryDy=0;entryPerimeter=0;exitX=0;exitY=0.5;exitDx=0;exitDy=0;" edge="1" parent="1" target="NRTdCzGTAj_v-6VQH-Ef-269" source="NRTdCzGTAj_v-6VQH-Ef-272">
          <mxGeometry width="50" height="50" relative="1" as="geometry">
            <mxPoint x="1310" y="3790" as="sourcePoint" />
            <mxPoint x="1226.75" y="3549.29" as="targetPoint" />
            <Array as="points" />
          </mxGeometry>
        </mxCell>
        <mxCell id="NRTdCzGTAj_v-6VQH-Ef-271" value="&lt;font style=&quot;font-size: 24px;&quot;&gt;Possui&lt;/font&gt;" style="rhombus;whiteSpace=wrap;html=1;" vertex="1" parent="1">
          <mxGeometry x="755" y="3750" width="150" height="120" as="geometry" />
        </mxCell>
        <mxCell id="NRTdCzGTAj_v-6VQH-Ef-272" value="&lt;font style=&quot;font-size: 36px;&quot;&gt;Contato&lt;/font&gt;" style="rounded=0;whiteSpace=wrap;html=1;" vertex="1" parent="1">
          <mxGeometry x="1345" y="3780" width="220" height="60" as="geometry" />
        </mxCell>
        <mxCell id="NRTdCzGTAj_v-6VQH-Ef-274" value="&lt;font style=&quot;font-size: 36px;&quot;&gt;&lt;u&gt;Id&lt;/u&gt;&lt;/font&gt;" style="ellipse;whiteSpace=wrap;html=1;" vertex="1" parent="1">
          <mxGeometry x="1200" y="3880" width="170" height="80" as="geometry" />
        </mxCell>
        <mxCell id="NRTdCzGTAj_v-6VQH-Ef-275" value="&lt;font style=&quot;font-size: 25px;&quot;&gt;numero_tel&lt;/font&gt;" style="ellipse;whiteSpace=wrap;html=1;" vertex="1" parent="1">
          <mxGeometry x="1500" y="4012" width="200" height="80" as="geometry" />
        </mxCell>
        <mxCell id="NRTdCzGTAj_v-6VQH-Ef-276" value="&lt;font style=&quot;font-size: 30px;&quot;&gt;tipo&lt;/font&gt;" style="ellipse;whiteSpace=wrap;html=1;" vertex="1" parent="1">
          <mxGeometry x="1530" y="3870" width="170" height="80" as="geometry" />
        </mxCell>
        <mxCell id="NRTdCzGTAj_v-6VQH-Ef-277" value="&lt;font style=&quot;font-size: 30px;&quot;&gt;id_passageiro&lt;/font&gt;" style="ellipse;whiteSpace=wrap;html=1;" vertex="1" parent="1">
          <mxGeometry x="1243.75" y="4002" width="230" height="90" as="geometry" />
        </mxCell>
        <mxCell id="NRTdCzGTAj_v-6VQH-Ef-278" value="" style="endArrow=none;html=1;rounded=0;exitX=0.5;exitY=1;exitDx=0;exitDy=0;entryX=0;entryY=0;entryDx=0;entryDy=0;" edge="1" parent="1" source="NRTdCzGTAj_v-6VQH-Ef-272" target="NRTdCzGTAj_v-6VQH-Ef-275">
          <mxGeometry width="50" height="50" relative="1" as="geometry">
            <mxPoint x="1657.25" y="3145" as="sourcePoint" />
            <mxPoint x="1516.25" y="3225" as="targetPoint" />
          </mxGeometry>
        </mxCell>
        <mxCell id="NRTdCzGTAj_v-6VQH-Ef-280" value="" style="endArrow=none;html=1;rounded=0;exitX=0.5;exitY=1;exitDx=0;exitDy=0;entryX=0.5;entryY=0;entryDx=0;entryDy=0;" edge="1" parent="1" source="NRTdCzGTAj_v-6VQH-Ef-272" target="NRTdCzGTAj_v-6VQH-Ef-277">
          <mxGeometry width="50" height="50" relative="1" as="geometry">
            <mxPoint x="1677.25" y="3165" as="sourcePoint" />
            <mxPoint x="1456.25" y="3255" as="targetPoint" />
          </mxGeometry>
        </mxCell>
        <mxCell id="NRTdCzGTAj_v-6VQH-Ef-281" value="" style="endArrow=none;html=1;rounded=0;exitX=0.5;exitY=1;exitDx=0;exitDy=0;entryX=0;entryY=0;entryDx=0;entryDy=0;" edge="1" parent="1" source="NRTdCzGTAj_v-6VQH-Ef-272" target="NRTdCzGTAj_v-6VQH-Ef-276">
          <mxGeometry width="50" height="50" relative="1" as="geometry">
            <mxPoint x="1616.25" y="3145" as="sourcePoint" />
            <mxPoint x="1566.25" y="3195" as="targetPoint" />
          </mxGeometry>
        </mxCell>
        <mxCell id="NRTdCzGTAj_v-6VQH-Ef-282" value="" style="endArrow=none;html=1;rounded=0;exitX=0.5;exitY=1;exitDx=0;exitDy=0;entryX=0.5;entryY=0;entryDx=0;entryDy=0;" edge="1" parent="1" source="NRTdCzGTAj_v-6VQH-Ef-272" target="NRTdCzGTAj_v-6VQH-Ef-274">
          <mxGeometry width="50" height="50" relative="1" as="geometry">
            <mxPoint x="1697.25" y="3185" as="sourcePoint" />
            <mxPoint x="1476.25" y="3275" as="targetPoint" />
            <Array as="points" />
          </mxGeometry>
        </mxCell>
      </root>
    </mxGraphModel>
  </diagram>
</mxfile>
